<?xml version="1.0" standalone="no"?>
<!DOCTYPE svg PUBLIC "-//W3C//DTD SVG 1.1//EN" "http://www.w3.org/Graphics/SVG/1.1/DTD/svg11.dtd" >
<svg>
<metadata>
Created by FontForge 20090914 at Fri May 15 09:30:36 2020
 By www-data
Copyright &#194;&#169; 2015 Perxis.com. All Rights Reserved.
</metadata>
<defs>
<font id="Linearicons-Free" horiz-adv-x="1024" >
  <font-face 
    font-family="Linearicons-Free"
    font-weight="400"
    font-stretch="normal"
    units-per-em="1024"
    panose-1="0 0 0 0 0 0 0 0 0 0"
    ascent="819"
    descent="-205"
    bbox="-0.28484 -51.0049 1024.4 973.003"
    underline-thickness="0"
    underline-position="0"
    unicode-range="U+0001-U+FFFD"
  />
<missing-glyph 
 />
    <glyph glyph-name=".notdef" unicode="&#xfffd;" 
 />
    <glyph glyph-name="glyph1" horiz-adv-x="0" 
d="M0 0v0v0z" />
    <glyph glyph-name="glyph1" horiz-adv-x="0" 
d="M0 0v0v0z" />
    <glyph glyph-name="uni0001" horiz-adv-x="0" 
d="M0 0v0v0z" />
    <glyph glyph-name="space" unicode=" " horiz-adv-x="409" 
d="M0 0v0v0z" />
    <glyph glyph-name="uniE800" unicode="&#xe800;" 
d="M1017 350l-451.997 499.999c-6.66699 7.33301 -14.667 13.166 -24 17.499s-19 6.5 -29 6.5v0v0c-10 0 -19.667 -2.16699 -29 -6.5s-17.333 -10.166 -24 -17.499l-452 -500c-4.66699 -5.33301 -6.83398 -11.5 -6.50098 -18.5s2.83301 -12.833 7.5 -17.5
c2.66699 -2.66699 5.5 -4.5 8.5 -5.5s6.16699 -1.5 9.5 -1.5s6.66602 0.666992 9.99902 2s6.33301 3.66602 9 6.99902l109 120v-410c0 -21.333 7.5 -39.5 22.5 -54.5s32.833 -22.5 53.5 -22.5h564c20.667 0 38.5 7.5 53.5 22.5s22.5 33.167 22.5 54.5v410l109 -120
c5.33301 -5.33301 11.5 -8.16602 18.5 -8.49902s13.167 1.83398 18.5 6.50098c4.66699 4.66699 7.16699 10.5 7.5 17.5s-1.83398 13.167 -6.50098 18.5v0zM614.003 -0.000976562h-204v230c0 7.33301 2.5 13.5 7.5 18.5s10.833 7.5 17.5 7.5h154
c6.66699 0 12.5 -2.5 17.5 -7.5s7.5 -11.167 7.5 -18.5v-230v0zM819.003 25.999c0 -7.33301 -2.50195 -13.5 -7.50195 -18.5s-10.833 -7.5 -17.5 -7.5h-128v230c0 21.333 -7.5 39.5 -22.5 54.5s-33.167 22.5 -54.5 22.5h-154c-21.333 0 -39.5 -7.5 -54.5 -22.5
s-22.5 -33.167 -22.5 -54.5v-230h-128c-6.66699 0 -12.5 2.5 -17.5 7.5s-7.5 11.167 -7.5 18.5v467l292 322c2 2.66699 4.33301 4.5 7 5.5s5.33398 1.5 8.00098 1.5s5.33398 -0.5 8.00098 -1.5s5 -2.83301 7 -5.5l292 -322v-467v0z" />
    <glyph glyph-name="uniE801" unicode="&#xe801;" 
d="M717 666h51v-52h-51v52v0zM717 563h51v-51h-51v51v0zM717 461h51v-51h-51v51v0zM717 358h51v-51h-51v51v0zM717 154h51v-52h-51v52v0zM717 256h51v-51h-51v51v0zM307 666h51v-52h-51v52v0zM307 563h51v-51h-51v51v0zM307 461h51v-51h-51v51v0zM307 358h51v-51h-51v51v0z
M307 154h51v-52h-51v52v0zM307 256h51v-51h-51v51v0zM205 666h51v-52h-51v52v0zM205 563h51v-51h-51v51v0zM205 461h51v-51h-51v51v0zM205 358h51v-51h-51v51v0zM205 154h51v-52h-51v52v0zM205 256h51v-51h-51v51v0zM410 666h51v-52h-51v52v0zM410 563h51v-51h-51v51v0z
M410 461h51v-51h-51v51v0zM410 358h51v-51h-51v51v0zM410 154h51v-52h-51v52v0zM410 256h51v-51h-51v51v0zM947 0l-25 -0.000976562v691c0 19.333 -6.5 38 -19.5 56s-28.5 30 -46.5 36l-242 80v84c0 4 -0.833008 7.83301 -2.5 11.5s-4.16699 6.83398 -7.5 9.50098
c-3.33301 2 -7 3.33301 -11 4s-8 0.666992 -12 0l-463 -139c-18.667 -6 -34.5 -17.667 -47.5 -35s-19.5 -36 -19.5 -56v-742h-25c-7.33301 0 -13.5 -2.5 -18.5 -7.5s-7.5 -11.167 -7.5 -18.5c0 -6.66699 2.5 -12.5 7.5 -17.5s11.167 -7.5 18.5 -7.5h921
c7.33301 0 13.5 2.5 18.5 7.5s7.5 10.833 7.5 17.5c0 7.33301 -2.5 13.5 -7.5 18.5s-11.167 7.5 -18.5 7.5v0zM839 733.999c8.66699 -2.66699 16 -8.33203 22 -16.999s9 -17.334 9 -26.001v-691h-256v809l225 -75v0zM102 742.001c0 8.66699 3.16699 17.167 9.5 25.5
s13.5 13.833 21.5 16.5l430 129v-913h-461v742v0z" />
    <glyph glyph-name="uniE802" unicode="&#xe802;" 
d="M978 927c-14 14 -30.3281 25 -48.9951 33s-38.334 12 -59.001 12c-20 0 -39.333 -4 -58 -12s-35 -19 -49 -33l-653 -653c-1.33301 -1.33301 -2.5 -2.83301 -3.5 -4.5s-1.83301 -3.16699 -2.5 -4.5l-102 -282c-2 -4.66699 -2.5 -9.33398 -1.5 -14.001s3.16699 -9 6.5 -13
c2.66699 -2 5.66699 -3.66699 9 -5s6.66602 -2 9.99902 -2c1.33301 0 2.66602 0.166992 3.99902 0.5s2.66602 0.5 3.99902 0.5l282 103c2 0.666992 3.66699 1.5 5 2.5s2.66602 2.16699 3.99902 3.5l653 652c14.667 14.667 25.834 31.334 33.501 50.001s11.5 38 11.5 58
c0 20.667 -3.83301 40.167 -11.5 58.5s-18.834 34.833 -33.501 49.5v0zM293.005 99l-225 -82l82 225l567 567l143 -143l-567 -567v0zM942.005 748l-45.9971 -46.0029l-143 143l46 46c9.33301 9.33301 20.166 16.5 32.499 21.5s25.166 7.5 38.499 7.5
c14 0 27.167 -2.5 39.5 -7.5s23.166 -12.167 32.499 -21.5c9.33301 -10 16.666 -21.167 21.999 -33.5s8 -25.166 8 -38.499s-2.66699 -26.166 -8 -38.499s-12.666 -23.166 -21.999 -32.499v0z" />
    <glyph glyph-name="uniE803" unicode="&#xe803;" 
d="M589 614c-7.33301 0 -13.5 2.5 -18.5 7.5s-7.5 11.167 -7.5 18.5c0 35.333 -12.5 65.5 -37.5 90.5s-55.167 37.5 -90.5 37.5c-6.66699 0 -12.5 2.5 -17.5 7.5s-7.5 11.167 -7.5 18.5c0 6.66699 2.5 12.5 7.5 17.5s10.833 7.5 17.5 7.5c35.333 0 65.5 12.5 90.5 37.5
s37.5 55.167 37.5 90.5c0 7.33301 2.5 13.5 7.5 18.5s11.167 7.5 18.5 7.5c6.66699 0 12.5 -2.5 17.5 -7.5s7.5 -11.167 7.5 -18.5c0 -35.333 12.5 -65.5 37.5 -90.5s55.167 -37.5 90.5 -37.5c7.33301 0 13.5 -2.5 18.5 -7.5s7.5 -10.833 7.5 -17.5
c0 -7.33301 -2.5 -13.5 -7.5 -18.5s-11.167 -7.5 -18.5 -7.5c-35.333 0 -65.5 -12.5 -90.5 -37.5s-37.5 -55.167 -37.5 -90.5c0 -7.33301 -2.5 -13.5 -7.5 -18.5s-10.833 -7.5 -17.5 -7.5v0zM527 794c12.667 -8 24.167 -17.167 34.5 -27.5s19.5 -21.833 27.5 -34.5
c7.33301 12.667 16.166 24.167 26.499 34.5s21.833 19.5 34.5 27.5c-12.667 7.33301 -24.167 16.166 -34.5 26.499s-19.166 21.833 -26.499 34.5c-8 -12.667 -17.167 -24.167 -27.5 -34.5s-21.833 -19.166 -34.5 -26.499v0zM77 461c-7.33301 0 -13.5 2.5 -18.5 7.5
s-7.5 10.833 -7.5 17.5c0 7.33301 -2.5 13.5 -7.5 18.5s-10.833 7.5 -17.5 7.5c-7.33301 0 -13.5 2.5 -18.5 7.5s-7.5 11.167 -7.5 18.5c0 6.66699 2.5 12.5 7.5 17.5s11.167 7.5 18.5 7.5c6.66699 0 12.5 2.5 17.5 7.5s7.5 11.167 7.5 18.5c0 6.66699 2.5 12.5 7.5 17.5
s11.167 7.5 18.5 7.5c6.66699 0 12.5 -2.5 17.5 -7.5s7.5 -10.833 7.5 -17.5c0 -7.33301 2.5 -13.5 7.5 -18.5s11.167 -7.5 18.5 -7.5s13.5 -2.5 18.5 -7.5s7.5 -10.833 7.5 -17.5c0 -7.33301 -2.5 -13.5 -7.5 -18.5s-11.167 -7.5 -18.5 -7.5s-13.5 -2.5 -18.5 -7.5
s-7.5 -11.167 -7.5 -18.5c0 -6.66699 -2.5 -12.5 -7.5 -17.5s-10.833 -7.5 -17.5 -7.5v0zM929 157l-542 542c-7.33301 7.33301 -15.666 12.833 -24.999 16.5s-19 5.5 -29 5.5c-10.667 0 -20.667 -1.83301 -30 -5.5s-17.666 -9.16699 -24.999 -16.5l-29 -30
c-7.33301 -7.33301 -13 -15.666 -17 -24.999s-6 -19.333 -6 -30c0 -10 2 -19.667 6 -29s9.66699 -17.666 17 -24.999l541 -542c7.33301 -7.33301 15.666 -12.833 24.999 -16.5s19.333 -5.5 30 -5.5c10 0 19.667 1.83301 29 5.5s17.666 9.16699 24.999 16.5l30 30
c7.33301 7.33301 13 15.666 17 24.999s6 19 6 29c0 10.667 -2 20.667 -6 30s-9.66699 17.666 -17 24.999v0zM285 633l30.001 29c2 2.66699 4.66699 4.66699 8 6s6.66602 2 9.99902 2s6.5 -0.666992 9.5 -2s5.83301 -3.33301 8.5 -6l74 -73l-67 -66l-73 73
c-5.33301 5.33301 -8 11.5 -8 18.5s2.66699 13.167 8 18.5v0zM893.001 84l-30.001 -30c-2.66699 -2 -5.5 -3.66699 -8.5 -5s-6.16699 -2 -9.5 -2s-6.66602 0.666992 -9.99902 2s-6 3 -8 5l-432 432l66 67l432 -432c4.66699 -5.33301 7 -11.5 7 -18.5
s-2.33301 -13.167 -7 -18.5v0zM179 717c-6.66699 0 -12.5 2.5 -17.5 7.5s-7.5 10.833 -7.5 17.5c0 21.333 -7.5 39.5 -22.5 54.5s-33.167 22.5 -54.5 22.5c-7.33301 0 -13.5 2.5 -18.5 7.5s-7.5 11.167 -7.5 18.5c0 6.66699 2.5 12.5 7.5 17.5s11.167 7.5 18.5 7.5
c21.333 0 39.5 7.5 54.5 22.5s22.5 33.167 22.5 54.5c0 7.33301 2.5 13.5 7.5 18.5s10.833 7.5 17.5 7.5c7.33301 0 13.5 -2.5 18.5 -7.5s7.5 -11.167 7.5 -18.5c0 -21.333 7.5 -39.5 22.5 -54.5s33.167 -22.5 54.5 -22.5c6.66699 0 12.5 -2.5 17.5 -7.5
s7.5 -10.833 7.5 -17.5c0 -7.33301 -2.5 -13.5 -7.5 -18.5s-10.833 -7.5 -17.5 -7.5c-21.333 0 -39.5 -7.5 -54.5 -22.5s-22.5 -33.167 -22.5 -54.5c0 -6.66699 -2.5 -12.5 -7.5 -17.5s-11.167 -7.5 -18.5 -7.5v0zM154 845c4.66699 -4 9.16699 -8.16699 13.5 -12.5
s8.16602 -8.83301 11.499 -13.5c4 4.66699 8.16699 9.16699 12.5 13.5s8.83301 8.5 13.5 12.5c-4.66699 3.33301 -9.16699 7.16602 -13.5 11.499s-8.5 8.83301 -12.5 13.5c-3.33301 -4.66699 -7.16602 -9.16699 -11.499 -13.5s-8.83301 -8.16602 -13.5 -11.499v0zM179 205
c-6.66699 0 -12.5 2.5 -17.5 7.5s-7.5 10.833 -7.5 17.5c0 21.333 -7.5 39.5 -22.5 54.5s-33.167 22.5 -54.5 22.5c-7.33301 0 -13.5 2.5 -18.5 7.5s-7.5 11.167 -7.5 18.5c0 6.66699 2.5 12.5 7.5 17.5s11.167 7.5 18.5 7.5c21.333 0 39.5 7.5 54.5 22.5
s22.5 33.167 22.5 54.5c0 7.33301 2.5 13.5 7.5 18.5s10.833 7.5 17.5 7.5c7.33301 0 13.5 -2.5 18.5 -7.5s7.5 -11.167 7.5 -18.5c0 -21.333 7.5 -39.5 22.5 -54.5s33.167 -22.5 54.5 -22.5c6.66699 0 12.5 -2.5 17.5 -7.5s7.5 -10.833 7.5 -17.5
c0 -7.33301 -2.5 -13.5 -7.5 -18.5s-10.833 -7.5 -17.5 -7.5c-21.333 0 -39.5 -7.5 -54.5 -22.5s-22.5 -33.167 -22.5 -54.5c0 -6.66699 -2.5 -12.5 -7.5 -17.5s-11.167 -7.5 -18.5 -7.5v0zM154 333c4.66699 -4 9.16699 -8.16699 13.5 -12.5s8.16602 -8.83301 11.499 -13.5
c4 4.66699 8.16699 9.16699 12.5 13.5s8.83301 8.5 13.5 12.5c-4.66699 3.33301 -9.16699 7.16602 -13.5 11.499s-8.5 8.83301 -12.5 13.5c-3.33301 -4.66699 -7.16602 -9.16699 -11.499 -13.5s-8.83301 -8.16602 -13.5 -11.499v0z" />
    <glyph glyph-name="uniE804" unicode="&#xe804;" 
d="M512 -51c-41.333 0 -80.6689 8.16699 -118.002 24.5s-70.333 39.5 -99 69.5c-28.667 31.333 -50.834 67.5 -66.501 108.5s-23.5 84.5 -23.5 130.5c0 37.333 3.83301 72.5 11.5 105.5s18 64.5 31 94.5s27.667 59 44 87l51.5 85l41.5 67
c13.667 22.667 26.667 46.334 39 71.001s24 50.334 35 77.001s20.5 55 28.5 85c2 5.33301 5.16699 9.83301 9.5 13.5s9.5 5.5 15.5 5.5s11.167 -1.83301 15.5 -5.5s7.5 -8.16699 9.5 -13.5c8 -30 17.5 -58.333 28.5 -85s22.833 -52.334 35.5 -77.001
s25.834 -48.334 39.501 -71.001l40.5 -67l52 -85c16.667 -28 31.334 -57 44.001 -87s22.834 -61.5 30.501 -94.5s11.5 -68.167 11.5 -105.5c0 -46 -7.66699 -89.667 -23 -131s-37.333 -77.333 -66 -108c-28.667 -30 -61.667 -53.167 -99 -69.5s-77 -24.5 -119 -24.5v0z
M511.997 865c-17.333 -46 -37 -88.167 -59 -126.5l-66 -111.5l-50.5 -82c-15.667 -26.667 -29.5 -53.834 -41.5 -81.501s-21.5 -56.334 -28.5 -86.001s-10.5 -61.5 -10.5 -95.5c0 -40.667 6.5 -78.167 19.5 -112.5s31 -64 54 -89s50 -44.667 81 -59
s64.833 -21.5 101.5 -21.5s70.5 7.16699 101.5 21.5s58 34 81 59s41 54.667 54 89s19.5 71.833 19.5 112.5c0 34 -3.5 65.833 -10.5 95.5s-16.5 58.334 -28.5 86.001s-25.833 54.834 -41.5 81.501l-49.5 82l-67 111.5c-22 38.333 -41.667 80.5 -59 126.5v0z" />
    <glyph glyph-name="uniE805" unicode="&#xe805;" 
d="M896 512h-34.999l-44 88c-2 4.66699 -5.16699 8.16699 -9.5 10.5s-8.83301 3.5 -13.5 3.5h-205c-7.33301 0 -13.5 -2.5 -18.5 -7.5s-7.5 -10.833 -7.5 -17.5v-77h-62l-197 342c-4 6 -9.33301 10 -16 12s-13 1 -19 -3l-178 -102c-6 -3.33301 -9.83301 -8.5 -11.5 -15.5
s-0.833984 -13.5 2.49902 -19.5l205 -355c2 -4 5 -7.16699 9 -9.5s8.33301 -3.5 13 -3.5c2 0 4.16699 0.333008 6.5 1s4.5 1.66699 6.5 3l139 80v-416c0 -7.33301 2.5 -13.5 7.5 -18.5s10.833 -7.5 17.5 -7.5h410c7.33301 0 13.5 2.5 18.5 7.5s7.5 11.167 7.5 18.5v460
c0 7.33301 -2.5 13.5 -7.5 18.5s-11.167 7.5 -18.5 7.5v0zM870.001 205h-51v153h51v-153v0zM614.001 563h164l26 -51h-190v51v0zM318.001 419l-179 310l133 77l179 -310l-133 -77v0zM512.001 51v410h333v0v0v0v0h25v-51h-76c-7.33301 0 -13.5 -2.5 -18.5 -7.5
s-7.5 -11.167 -7.5 -18.5v-205c0 -6.66699 2.5 -12.5 7.5 -17.5s11.167 -7.5 18.5 -7.5h76v-103h-358v0zM794.001 666c-19.333 0 -34.1641 3.66699 -44.4971 11s-17.5 14.666 -21.5 21.999c-8.66699 14.667 -12.334 33 -11.001 55s7.66602 48 18.999 78
c8 20.667 15.833 38.334 23.5 53.001s11.5 22.667 11.5 24c2.66699 4 6 7.16699 10 9.5s8.33301 3.5 13 3.5s9 -1.16699 13 -3.5s7 -5.5 9 -9.5l12 -24c7.33301 -14.667 15 -32.334 23 -53.001c11.333 -30 17.666 -56 18.999 -78s-2 -40.333 -10 -55
c-4.66699 -7.33301 -12.167 -14.666 -22.5 -21.999s-24.833 -11 -43.5 -11v0zM794.003 838c-2 -4 -3.83594 -8.00098 -5.50293 -12.001s-3.16699 -8 -4.5 -12c-11.333 -31.333 -16.5 -53.333 -15.5 -66s2.16699 -20.334 3.5 -23.001
c0.666992 -1.33301 2.33398 -3 5.00098 -5s8.33398 -3 17.001 -3c8 0 13.333 1 16 3s4.33398 3.66699 5.00098 5c2 2.66699 3.5 10.334 4.5 23.001s-4.5 34.667 -16.5 66c-1.33301 4.66699 -2.83301 8.83398 -4.5 12.501s-3.16699 7.5 -4.5 11.5v0z" />
    <glyph glyph-name="uniE806" unicode="&#xe806;" 
d="M873 292c-2 0.666992 -4.00195 1.6748 -6.00195 3.00781s-4 2.33301 -6 3c24.667 19.333 41 38.833 49 58.5s12 37.5 12 53.5c0 36 -14.5 69.167 -43.5 99.5s-68.833 55.166 -119.5 74.499c2.66699 9.33301 4.83398 18.666 6.50098 27.999s2.5 18.666 2.5 27.999
c0 49.333 -17.5 91.5 -52.5 126.5s-77.167 52.5 -126.5 52.5c-17.333 0 -34.5 3.33301 -51.5 10s-25.5 20.334 -25.5 41.001c0 12 5.33301 23.5 16 34.5s18.667 18.167 24 21.5c4.66699 3.33301 8 7.66602 10 12.999s2 10.666 0 15.999
c-1.33301 5.33301 -4.33301 9.66602 -9 12.999s-9.66699 5 -15 5c-40.667 0 -80.667 -6.33301 -120 -19s-75 -30.667 -107 -54c-16 -11.333 -30.333 -23.833 -43 -37.5s-23.667 -27.834 -33 -42.501c-10 -16.667 -17.5 -33.667 -22.5 -51s-7.5 -34.666 -7.5 -51.999
c0 -7.33301 0.333008 -14.666 1 -21.999l2 -22c-21.333 -10.667 -41 -22.834 -59 -36.501s-34 -28.5 -48 -44.5c-16 -20 -28.333 -41 -37 -63s-13 -44.667 -13 -68c0 -14 1.5 -28.167 4.5 -42.5s7.5 -28.166 13.5 -41.499c-22.667 -22 -39.834 -45.333 -51.501 -70
s-17.5 -50.334 -17.5 -77.001c0 -38.667 12.667 -75.5 38 -110.5s62 -65.833 110 -92.5c22.667 -12.667 47.167 -23.834 73.5 -33.501s53.833 -17.834 82.5 -24.501s58.334 -11.667 89.001 -15s61.667 -5 93 -5c33.333 0 65.333 1 96 3s60.334 5 89.001 9s55.5 9 80.5 15
s48.167 13 69.5 21c62.667 22.667 103.667 48.667 123 78s29 55.666 29 78.999c0 18.667 -6.33301 40.5 -19 65.5s-39.667 49.167 -81 72.5v0zM802.998 45.0078c-19.333 -7.33301 -40.998 -13.8223 -64.998 -19.4893s-49.333 -10.334 -76 -14.001s-54.834 -6.5 -84.501 -8.5
s-60.167 -3 -91.5 -3c-29.333 0 -58.333 1.5 -87 4.5s-56.167 7.66699 -82.5 14s-51.666 13.833 -75.999 22.5s-46.833 19 -67.5 31c-39.333 21.333 -69.5 45.666 -90.5 72.999s-31.5 55.666 -31.5 84.999c0 20.667 4.5 39.334 13.5 56.001s19.5 31.334 31.5 44.001
c2.66699 -4 5.66699 -8 9 -12l10 -12c20 -23.333 43.833 -43.666 71.5 -60.999s56.834 -30.333 87.501 -39c1.33301 -0.666992 2.66602 -1 3.99902 -1h4c5.33301 0 10.333 1.66699 15 5s7.66699 7.66602 9 12.999c2 6.66699 1.33301 13.167 -2 19.5s-8.33301 10.5 -15 12.5
c-53.333 15.333 -97.833 42.666 -133.5 81.999s-53.5 80.666 -53.5 123.999c0 31.333 10.667 61.166 32 89.499s50.666 52.166 87.999 71.499c13.333 -36.667 33.5 -69.334 60.5 -98.001s57.833 -49.334 92.5 -62.001c2 0 3.66699 -0.166992 5 -0.5
s2.66602 -0.5 3.99902 -0.5c5.33301 0 10.166 1.5 14.499 4.5s7.5 7.16699 9.5 12.5c2.66699 6.66699 2.5 13.167 -0.5 19.5s-7.83301 10.833 -14.5 13.5c-39.333 13.333 -72 39.666 -98 78.999s-39 81.666 -39 126.999c0 26 7.33301 51.167 22 75.5s35.667 46.5 63 66.5
c19.333 14 40.166 25.667 62.499 35s45.5 16.333 69.5 21c-3.33301 -6.66699 -6.16602 -13.667 -8.49902 -21s-3.5 -15.333 -3.5 -24c0 -24.667 9.5 -47.834 28.5 -69.501s52.167 -32.5 99.5 -32.5c35.333 0 65.5 -12.5 90.5 -37.5s37.5 -55.167 37.5 -90.5
c0 -6.66699 -0.5 -13.5 -1.5 -20.5s-2.83301 -13.5 -5.5 -19.5c-10 2.66699 -20.5 5.16699 -31.5 7.5s-22.5 4.5 -34.5 6.5c-6.66699 1.33301 -13 -0.166992 -19 -4.5s-9.33301 -9.83301 -10 -16.5c-1.33301 -7.33301 0 -13.833 4 -19.5s9.66699 -8.83398 17 -9.50098
c35.333 -6 67.833 -14.333 97.5 -25s55.167 -23.334 76.5 -38.001c14 -10 27.5 -22.667 40.5 -38s19.5 -33 19.5 -53c0 -16.667 -5.33301 -32.334 -16 -47.001s-27 -28.334 -49 -41.001c-23.333 8.66699 -48.666 16 -75.999 22s-56 10.667 -86 14
c-7.33301 0.666992 -13.666 -1.16602 -18.999 -5.49902s-8.33301 -9.83301 -9 -16.5c-1.33301 -7.33301 0.166992 -13.666 4.5 -18.999s10.166 -8.66602 17.499 -9.99902c43.333 -4.66699 82.833 -12.167 118.5 -22.5s66.5 -22.833 92.5 -37.5
c16.667 -9.33301 33.167 -21.833 49.5 -37.5s24.5 -34.167 24.5 -55.5c0 -27.333 -13 -49.833 -39 -67.5s-52.667 -31.5 -80 -41.5v0z" />
    <glyph glyph-name="uniE807" unicode="&#xe807;" 
d="M486 205c-31.333 0 -61 6 -89 18s-52.333 28.5 -73 49.5s-37.167 45.5 -49.5 73.5s-18.5 57.667 -18.5 89c0 32 6.16699 62 18.5 90s28.833 52.333 49.5 73s45 37 73 49s57.667 18 89 18c32 0 62 -6 90 -18s52.333 -28.333 73 -49s37 -45 49 -73s18 -58 18 -90
c0 -31.333 -6 -61 -18 -89s-28.333 -52.5 -49 -73.5s-45 -37.5 -73 -49.5s-58 -18 -90 -18v0zM486 614c-49.333 0 -91.333 -17.5 -126 -52.5s-52 -77.167 -52 -126.5s17.333 -91.5 52 -126.5s76.667 -52.5 126 -52.5s91.5 17.5 126.5 52.5s52.5 77.167 52.5 126.5
s-17.5 91.5 -52.5 126.5s-77.167 52.5 -126.5 52.5v0zM486 717c-6.66699 0 -12.5 2.5 -17.5 7.5s-7.5 10.833 -7.5 17.5v154c0 7.33301 2.5 13.5 7.5 18.5s10.833 7.5 17.5 7.5c7.33301 0 13.5 -2.5 18.5 -7.5s7.5 -11.167 7.5 -18.5v-154c0 -6.66699 -2.5 -12.5 -7.5 -17.5
s-11.167 -7.5 -18.5 -7.5v0zM486 -51c-6.66699 0 -12.5 2.5 -17.5 7.5s-7.5 10.833 -7.5 17.5v154c0 7.33301 2.5 13.5 7.5 18.5s10.833 7.5 17.5 7.5c7.33301 0 13.5 -2.5 18.5 -7.5s7.5 -11.167 7.5 -18.5v-154c0 -6.66699 -2.5 -12.5 -7.5 -17.5s-11.167 -7.5 -18.5 -7.5
v0zM179 410h-153c-7.33301 0 -13.5 2.5 -18.5 7.5s-7.5 10.833 -7.5 17.5c0 7.33301 2.5 13.5 7.5 18.5s11.167 7.5 18.5 7.5h153c7.33301 0 13.5 -2.5 18.5 -7.5s7.5 -11.167 7.5 -18.5c0 -6.66699 -2.5 -12.5 -7.5 -17.5s-11.167 -7.5 -18.5 -7.5v0zM947 410h-153
c-7.33301 0 -13.5 2.5 -18.5 7.5s-7.5 10.833 -7.5 17.5c0 7.33301 2.5 13.5 7.5 18.5s11.167 7.5 18.5 7.5h153c7.33301 0 13.5 -2.5 18.5 -7.5s7.5 -11.167 7.5 -18.5c0 -6.66699 -2.5 -12.5 -7.5 -17.5s-11.167 -7.5 -18.5 -7.5v0zM230 666
c-3.33301 0 -6.50098 0.5 -9.50098 1.5s-5.83301 2.83301 -8.5 5.5l-102 102c-5.33301 5.33301 -8 11.5 -8 18.5s2.66699 13.167 8 18.5c4.66699 4.66699 10.667 7 18 7s13.333 -2.33301 18 -7l103 -103c4.66699 -4.66699 7 -10.5 7 -17.5s-2.33301 -13.167 -7 -18.5
c-2.66699 -2.66699 -5.66699 -4.5 -9 -5.5s-6.66602 -1.5 -9.99902 -1.5v0zM127.999 51c-3.33301 0 -6.5 0.666992 -9.5 2s-5.83301 3.33301 -8.5 6c-5.33301 4.66699 -8 10.5 -8 17.5s2.66699 13.167 8 18.5l102 102c5.33301 5.33301 11.5 8 18.5 8
s13.167 -2.66699 18.5 -8c4.66699 -4.66699 7 -10.5 7 -17.5s-2.33301 -13.167 -7 -18.5l-103 -102c-2.66699 -2.66699 -5.5 -4.66699 -8.5 -6s-6.16699 -2 -9.5 -2v0zM844.999 51c-3.33301 0 -6.66699 0.666992 -10 2s-6 3.33301 -8 6l-103 102
c-4.66699 5.33301 -7 11.5 -7 18.5s2.33301 12.833 7 17.5c5.33301 5.33301 11.5 8 18.5 8s13.167 -2.66699 18.5 -8l102 -102c4.66699 -5.33301 7 -11.5 7 -18.5s-2.33301 -12.833 -7 -17.5c-2.66699 -2.66699 -5.5 -4.66699 -8.5 -6s-6.16699 -2 -9.5 -2v0zM741.998 666
c-3.33301 0 -6.50098 0.5 -9.50098 1.5s-5.83301 2.83301 -8.5 5.5c-4.66699 5.33301 -7 11.5 -7 18.5s2.33301 12.833 7 17.5l103 103c4.66699 4.66699 10.5 7 17.5 7s13.167 -2.33301 18.5 -7c4.66699 -5.33301 7 -11.5 7 -18.5s-2.33301 -13.167 -7 -18.5l-102 -102
c-2.66699 -2.66699 -5.66699 -4.5 -9 -5.5s-6.66602 -1.5 -9.99902 -1.5v0z" />
    <glyph glyph-name="uniE808" unicode="&#xe808;" 
d="M525 -51c-35.333 0 -69.8281 3.3291 -103.495 9.99609s-66.167 16.5 -97.5 29.5s-61.333 29 -90 48s-55.334 41.167 -80.001 66.5c-24.667 24.667 -46.667 51.334 -66 80.001s-35.5 58.667 -48.5 90s-22.833 63.833 -29.5 97.5s-10 68.167 -10 103.5
c0 28.667 2.33301 56.834 7 84.501s11.5 54.834 20.5 81.501s20.167 52.334 33.5 77.001s28.666 48.334 45.999 71.001c16.667 22 35 42.333 55 61s41.333 35.667 64 51c23.333 16 47.5 30 72.5 42s51.167 22 78.5 30c4.66699 1.33301 9.5 1.16602 14.5 -0.500977
s9.16699 -4.16699 12.5 -7.5c3.33301 -4 5.16602 -8.66699 5.49902 -14s-0.5 -10 -2.5 -14c-16.667 -32.667 -29 -64.667 -37 -96s-12 -64 -12 -98c0 -60 11.5 -116.333 34.5 -169s54.167 -98.667 93.5 -138s85.5 -70.5 138.5 -93.5s109.5 -34.5 169.5 -34.5
c33.333 0 65.666 4 96.999 12s63.333 20.333 96 37c4.66699 2 9.5 2.66699 14.5 2s9.5 -2.33398 13.5 -5.00098c4 -3.33301 6.66699 -7.5 8 -12.5s1.33301 -9.83301 0 -14.5c-8 -27.333 -18 -53.5 -30 -78.5s-25.667 -49.167 -41 -72.5c-16 -22.667 -33.333 -44 -52 -64
s-39 -38.333 -61 -55c-22.667 -17.333 -46.334 -32.666 -71.001 -45.999s-50.167 -24.5 -76.5 -33.5s-53.5 -15.833 -81.5 -20.5s-56.333 -7 -85 -7v0zM336.005 902.996c-42.667 -18.667 -81.666 -42.665 -116.999 -71.998s-65.333 -62.5 -90 -99.5
s-43.834 -77.333 -57.501 -121s-20.5 -89.167 -20.5 -136.5c0 -65.333 12.5 -126.833 37.5 -184.5s58.833 -107.834 101.5 -150.501s92.834 -76.5 150.501 -101.5s119.167 -37.5 184.5 -37.5c47.333 0 92.833 6.83301 136.5 20.5s84 32.834 121 57.501
s70.167 54.5 99.5 89.5s53.333 74.167 72 117.5c-26 -10 -52.333 -17.333 -79 -22s-53.667 -7 -81 -7c-32.667 0 -64.667 3.16699 -96 9.5s-61.5 15.5 -90.5 27.5s-56.833 26.833 -83.5 44.5s-51.334 37.834 -74.001 60.501c-23.333 23.333 -43.833 48.166 -61.5 74.499
s-32.5 54.166 -44.5 83.499s-21.167 59.666 -27.5 90.999s-9.5 63 -9.5 95c0 28 2.5 55.333 7.5 82s12.167 53 21.5 79v0z" />
    <glyph glyph-name="uniE809" unicode="&#xe809;" 
d="M820 154l-513.005 0.000976562c-42 0 -81.667 8 -119 24s-70 37.833 -98 65.5s-50 60.167 -66 97.5s-24 77.333 -24 120c0 42 8 81.667 24 119s38 70 66 98s60.667 50 98 66s77 24 119 24c41.333 0 80.833 -7.83301 118.5 -23.5s70.834 -38.167 99.501 -67.5
c2.66699 5.33301 5.33398 10.333 8.00098 15s5.66699 9.33398 9 14.001c14.667 19.333 32.834 34.5 54.501 45.5s44.834 16.5 69.501 16.5c42 0 78 -15 108 -45s45 -66.333 45 -109c0 -8.66699 -0.666992 -17.334 -2 -26.001s-3.66602 -17.334 -6.99902 -26.001
c1.33301 0 2.83301 0.166992 4.5 0.5s3.5 0.5 5.5 0.5c28 0 54.333 -5.5 79 -16.5s46.334 -25.667 65.001 -44s33.334 -40 44.001 -65s16 -51.5 16 -79.5s-5.33301 -54.5 -16 -79.5s-25.334 -46.667 -44.001 -65s-40.334 -32.833 -65.001 -43.5s-51 -16 -79 -16v0z
M306.995 717.001c-35.333 0 -68.502 -6.6748 -99.502 -20.0078s-58.167 -31.666 -81.5 -54.999s-41.666 -50.5 -54.999 -81.5s-20 -64.167 -20 -99.5s6.66699 -68.5 20 -99.5s31.666 -58.167 54.999 -81.5s50.5 -41.666 81.5 -54.999s64.167 -20 99.5 -20h513
c42 0 78 15 108 45s45 66 45 108s-15 78 -45 108s-66 45 -108 45c-9.33301 0 -18.333 -0.666992 -27 -2s-17.334 -3.66602 -26.001 -6.99902c-5.33301 -2 -10.833 -2 -16.5 0s-10.167 5.33301 -13.5 10c-3.33301 5.33301 -4.66602 10.833 -3.99902 16.5s3 10.834 7 15.501
c8.66699 9.33301 15.5 20.166 20.5 32.499s7.5 24.833 7.5 37.5c0 28.667 -10 53 -30 73s-44 30 -72 30c-16.667 0 -32.167 -3.66699 -46.5 -11s-26.5 -17.666 -36.5 -30.999c-6 -8 -10.667 -16.5 -14 -25.5s-5.33301 -18.5 -6 -28.5
c0 -5.33301 -1.66699 -10.166 -5 -14.499s-7.66602 -7.16602 -12.999 -8.49902s-10.666 -1.16602 -15.999 0.500977s-9.33301 4.83398 -12 9.50098c-2.66699 4 -5.66699 7.83301 -9 11.5s-6.33301 7.5 -9 11.5c-24.667 27.333 -53.667 48.5 -87 63.5s-68.333 22.5 -105 22.5
v0z" />
    <glyph glyph-name="uniE80A" unicode="&#xe80a;" 
d="M820 154l-180.006 -0.00585938c-7.33301 0 -13.5 2.5 -18.5 7.5s-7.5 10.833 -7.5 17.5c0 7.33301 2.5 13.5 7.5 18.5s11.167 7.5 18.5 7.5h180c42 0 78 15 108 45s45 66 45 108s-15 78 -45 108s-66 45 -108 45c-9.33301 0 -18.333 -0.666992 -27 -2
s-17.334 -3.66602 -26.001 -6.99902c-5.33301 -2 -10.833 -2 -16.5 0s-10.167 5.33301 -13.5 10c-3.33301 5.33301 -4.66602 10.833 -3.99902 16.5s3 10.834 7 15.501c8.66699 9.33301 15.5 20.166 20.5 32.499s7.5 24.833 7.5 37.5c0 28.667 -10 53 -30 73s-44 30 -72 30
c-16.667 0 -32.167 -3.66699 -46.5 -11s-26.5 -17.666 -36.5 -30.999c-6 -8 -10.667 -16.5 -14 -25.5s-5.33301 -18.5 -6 -28.5c0 -5.33301 -1.66699 -10.166 -5 -14.499s-7.66602 -7.16602 -12.999 -8.49902s-10.5 -1.16602 -15.5 0.500977s-9.16699 4.83398 -12.5 9.50098
v0c-2.66699 4 -5.66699 7.83301 -9 11.5s-6.33301 7.5 -9 11.5c-24.667 27.333 -53.667 48.5 -87 63.5s-68.333 22.5 -105 22.5c-35.333 0 -68.5 -6.83301 -99.5 -20.5s-58 -32 -81 -55s-41.333 -50 -55 -81s-20.5 -64.167 -20.5 -99.5s6.83301 -68.5 20.5 -99.5
s32 -58.167 55 -81.5s50 -41.666 81 -54.999s64.167 -20 99.5 -20h128c7.33301 0 13.5 -2.5 18.5 -7.5s7.5 -11.167 7.5 -18.5c0 -6.66699 -2.5 -12.5 -7.5 -17.5s-11.167 -7.5 -18.5 -7.5h-128c-42 0 -81.667 8 -119 24s-70 37.833 -98 65.5s-50 60.167 -66 97.5
s-24 77.333 -24 120c0 42 8 81.667 24 119s38 70 66 98s60.667 50 98 66s77 24 119 24c41.333 0 80.833 -7.83301 118.5 -23.5s70.834 -38.167 99.501 -67.5c2.66699 5.33301 5.33398 10.333 8.00098 15s5.66699 9.33398 9 14.001c14.667 19.333 32.834 34.5 54.501 45.5
s44.834 16.5 69.501 16.5c42 0 78 -15 108 -45s45 -66.333 45 -109c0 -8.66699 -0.666992 -17.334 -2 -26.001s-3.66602 -17.334 -6.99902 -26.001c1.33301 0 2.83301 0.166992 4.5 0.5s3.5 0.5 5.5 0.5c28 0 54.333 -5.5 79 -16.5s46.334 -25.667 65.001 -44
s33.334 -40 44.001 -65s16 -51.5 16 -79.5s-5.33301 -54.5 -16 -79.5s-25.334 -46.667 -44.001 -65s-40.334 -32.833 -65.001 -43.5s-51 -16 -79 -16v0zM657.994 350.994l-102 102c-5.33301 5.33301 -11.5 8 -18.5 8s-13.167 -2.66699 -18.5 -8l-102 -102
c-4.66699 -5.33301 -7 -11.5 -7 -18.5s2.33301 -12.833 7 -17.5c5.33301 -5.33301 11.5 -8 18.5 -8s12.833 2.66699 17.5 8l59 58v-194c0 -6.66699 2.5 -12.5 7.5 -17.5s11.167 -7.5 18.5 -7.5c6.66699 0 12.5 2.5 17.5 7.5s7.5 10.833 7.5 17.5v194l59 -58
c2.66699 -2.66699 5.5 -4.66699 8.5 -6s6.16699 -2 9.5 -2s6.5 0.666992 9.5 2s5.83301 3.33301 8.5 6c5.33301 4.66699 8 10.5 8 17.5s-2.66699 13.167 -8 18.5v0z" />
    <glyph glyph-name="uniE80B" unicode="&#xe80b;" 
d="M820 154l-129.006 -0.00585938c-6.66699 0 -12.5 2.5 -17.5 7.5s-7.5 10.833 -7.5 17.5c0 7.33301 2.5 13.5 7.5 18.5s10.833 7.5 17.5 7.5h129c42 0 78 15 108 45s45 66 45 108s-15 78 -45 108s-66 45 -108 45c-9.33301 0 -18.333 -0.666992 -27 -2
s-17.334 -3.66602 -26.001 -6.99902c-5.33301 -2 -10.833 -2 -16.5 0s-10.167 5.33301 -13.5 10c-3.33301 5.33301 -4.66602 10.833 -3.99902 16.5s3 10.834 7 15.501c8.66699 9.33301 15.5 20.166 20.5 32.499s7.5 24.833 7.5 37.5c0 28.667 -10 53 -30 73s-44 30 -72 30
c-16.667 0 -32.167 -3.66699 -46.5 -11s-26.5 -17.666 -36.5 -30.999c-6 -8 -10.667 -16.5 -14 -25.5s-5.33301 -18.5 -6 -28.5c0 -5.33301 -1.66699 -10.166 -5 -14.499s-7.66602 -7.16602 -12.999 -8.49902s-10.5 -1.16602 -15.5 0.500977s-9.16699 4.83398 -12.5 9.50098
v0c-2.66699 4 -5.66699 7.83301 -9 11.5s-6.33301 7.5 -9 11.5c-24.667 27.333 -53.667 48.5 -87 63.5s-68.333 22.5 -105 22.5c-35.333 0 -68.5 -6.83301 -99.5 -20.5s-58 -32 -81 -55s-41.333 -50 -55 -81s-20.5 -64.167 -20.5 -99.5s6.83301 -68.5 20.5 -99.5
s32 -58.167 55 -81.5s50 -41.666 81 -54.999s64.167 -20 99.5 -20h77c7.33301 0 13.5 -2.5 18.5 -7.5s7.5 -11.167 7.5 -18.5c0 -6.66699 -2.5 -12.5 -7.5 -17.5s-11.167 -7.5 -18.5 -7.5h-77c-42 0 -81.667 8 -119 24s-70 37.833 -98 65.5s-50 60.167 -66 97.5
s-24 77.333 -24 120c0 42 8 81.667 24 119s38 70 66 98s60.667 50 98 66s77 24 119 24c41.333 0 80.833 -7.83301 118.5 -23.5s70.834 -38.167 99.501 -67.5c2.66699 5.33301 5.33398 10.333 8.00098 15s5.66699 9.33398 9 14.001c14.667 19.333 32.834 34.5 54.501 45.5
s44.834 16.5 69.501 16.5c42 0 78 -15 108 -45s45 -66.333 45 -109c0 -8.66699 -0.666992 -17.334 -2 -26.001s-3.66602 -17.334 -6.99902 -26.001c1.33301 0 2.83301 0.166992 4.5 0.5s3.5 0.5 5.5 0.5c28 0 54.333 -5.5 79 -16.5s46.334 -25.667 65.001 -44
s33.334 -40 44.001 -65s16 -51.5 16 -79.5s-5.33301 -54.5 -16 -79.5s-25.334 -46.667 -44.001 -65s-40.334 -32.833 -65.001 -43.5s-51 -16 -79 -16v0zM657.994 299.994c-4.66699 4.66699 -10.666 7 -17.999 7s-13.333 -2.33301 -18 -7l-59 -59v194
c0 7.33301 -2.5 13.5 -7.5 18.5s-10.833 7.5 -17.5 7.5c-7.33301 0 -13.5 -2.5 -18.5 -7.5s-7.5 -11.167 -7.5 -18.5v-194l-59 59c-4.66699 4.66699 -10.5 7 -17.5 7s-13.167 -2.33301 -18.5 -7c-4.66699 -5.33301 -7 -11.5 -7 -18.5s2.33301 -13.167 7 -18.5l102 -102
c2.66699 -2.66699 5.66699 -4.5 9 -5.5s6.66602 -1.5 9.99902 -1.5s6.5 0.5 9.5 1.5s5.83301 2.83301 8.5 5.5l102 102c5.33301 5.33301 8 11.5 8 18.5s-2.66699 13.167 -8 18.5v0z" />
    <glyph glyph-name="uniE80C" unicode="&#xe80c;" 
d="M820 563c-2 0 -3.82812 -0.167969 -5.49512 -0.500977s-3.16699 -0.5 -4.5 -0.5c3.33301 8.66699 5.66602 17.334 6.99902 26.001s2 17.334 2 26.001c0 42.667 -15 79 -45 109s-66 45 -108 45c-24.667 0 -47.834 -5.5 -69.501 -16.5s-39.834 -26.167 -54.501 -45.5
c-3.33301 -4.66699 -6.33301 -9.33398 -9 -14.001s-5.33398 -9.66699 -8.00098 -15c-28.667 29.333 -61.834 51.833 -99.501 67.5s-77.167 23.5 -118.5 23.5c-42 0 -81.667 -8 -119 -24s-70 -38 -98 -66s-50 -60.667 -66 -98s-24 -77 -24 -119c0 -42.667 8 -82.667 24 -120
s38 -69.833 66 -97.5s60.667 -49.5 98 -65.5s77 -24 119 -24h513c28 0 54.333 5.33301 79 16s46.334 25.167 65.001 43.5s33.334 40 44.001 65s16 51.5 16 79.5s-5.33301 54.5 -16 79.5s-25.334 46.667 -44.001 65s-40.334 33 -65.001 44s-51 16.5 -79 16.5v0z
M820.005 204.999l-512.999 0.0078125c-35.333 0 -68.5 6.66699 -99.5 20s-58.167 31.666 -81.5 54.999s-41.666 50.5 -54.999 81.5s-20 64.167 -20 99.5s6.66699 68.5 20 99.5s31.666 58.167 54.999 81.5s50.5 41.666 81.5 54.999s64.167 20 99.5 20
c36.667 0 71.667 -7.5 105 -22.5s62.333 -36.167 87 -63.5c2.66699 -4 5.66699 -7.83301 9 -11.5s6.33301 -7.5 9 -11.5v0c3.33301 -4.66699 7.5 -7.83398 12.5 -9.50098s10.167 -1.83398 15.5 -0.500977s9.66602 4.16602 12.999 8.49902s5 9.16602 5 14.499
c0.666992 10 2.66699 19.5 6 28.5s8 17.5 14 25.5c10 13.333 22.167 23.666 36.5 30.999s29.833 11 46.5 11c28 0 52 -10 72 -30s30 -44.333 30 -73c0 -12.667 -2.5 -25.167 -7.5 -37.5s-11.833 -23.166 -20.5 -32.499c-4 -4.66699 -6.33301 -9.83398 -7 -15.501
s0.666016 -11.167 3.99902 -16.5c3.33301 -4.66699 7.83301 -8 13.5 -10s11.167 -2 16.5 0c8.66699 3.33301 17.334 5.66602 26.001 6.99902s17.667 2 27 2c42 0 78 -15 108 -45s45 -66 45 -108s-15 -78 -45 -108s-66 -45 -108 -45v0zM328.006 360.007
c-3.33301 -0.666992 -6.83203 -1.16797 -10.499 -1.50098s-7.16699 -0.5 -10.5 -0.5c-28 0 -52 10 -72 30s-30 44.333 -30 73v15l7 -8c2.66699 -2 5.5 -3.66699 8.5 -5s6.16699 -2 9.5 -2s6.66602 0.666992 9.99902 2s6.33301 3 9 5c4.66699 5.33301 7 11.5 7 18.5
s-2.33301 13.167 -7 18.5l-52 51c-4.66699 4.66699 -10.5 7 -17.5 7s-13.167 -2.33301 -18.5 -7l-51 -51c-5.33301 -5.33301 -8 -11.5 -8 -18.5s2.66699 -13.167 8 -18.5c4.66699 -4.66699 10.667 -7 18 -7s13.333 2.33301 18 7l8 8v-15c0 -42.667 15 -79 45 -109
s66 -45 108 -45c5.33301 0 10.666 0.333008 15.999 1s10.333 1.33398 15 2.00098c7.33301 1.33301 12.833 5 16.5 11s4.83398 12.667 3.50098 20c-1.33301 6.66699 -5 12 -11 16s-12.333 5 -19 3v0zM468.007 453.006l-6.99707 -7.00098v15c0 42 -15 78 -45 108
s-66.333 45 -109 45c-5.33301 0 -10.5 -0.166992 -15.5 -0.5s-10.167 -1.16602 -15.5 -2.49902c-6.66699 -1.33301 -12 -5 -16 -11s-5.33301 -12.333 -4 -19s5 -12 11 -16s12.667 -5.33301 20 -4c3.33301 0.666992 6.66602 1.16699 9.99902 1.5s6.66602 0.5 9.99902 0.5
c28.667 0 53 -10 73 -30s30 -44 30 -72v-15l-8 7c-4.66699 5.33301 -10.667 8 -18 8s-13.333 -2.66699 -18 -8c-5.33301 -4.66699 -8 -10.5 -8 -17.5s2.66699 -13.167 8 -18.5l51 -51c2.66699 -2.66699 5.5 -4.66699 8.5 -6s6.16699 -2 9.5 -2s6.66602 0.666992 9.99902 2
s6 3.33301 8 6l52 51c4.66699 5.33301 7 11.5 7 18.5s-2.33301 12.833 -7 17.5c-5.33301 5.33301 -11.5 8 -18.5 8s-13.167 -2.66699 -18.5 -8v0z" />
    <glyph glyph-name="uniE80D" unicode="&#xe80d;" 
d="M819 154l-486.007 -0.00195312c-7.33301 0 -13.5 2.5 -18.5 7.5s-7.5 10.833 -7.5 17.5c0 7.33301 2.5 13.5 7.5 18.5s11.167 7.5 18.5 7.5h486c42.667 0 79 15 109 45s45 66 45 108c0 42.667 -15 79 -45 109s-66.333 45 -109 45
c-8.66699 0 -17.334 -0.666992 -26.001 -2s-17 -3.66602 -25 -6.99902c-5.33301 -2 -10.833 -2 -16.5 0s-10.167 5.33301 -13.5 10c-3.33301 5.33301 -4.66602 10.833 -3.99902 16.5s3 10.834 7 15.501c8.66699 9.33301 15.334 20 20.001 32s7 24.333 7 37
c0 28.667 -10 53 -30 73s-44 30 -72 30c-27.333 0 -50.833 -9.33301 -70.5 -28s-30.5 -41.334 -32.5 -68.001c0 -5.33301 -1.66699 -10.166 -5 -14.499s-7.66602 -7.16602 -12.999 -8.49902s-10.5 -1.16602 -15.5 0.500977s-9.16699 4.83398 -12.5 9.50098
c-24 34 -54.5 60.667 -91.5 80s-76.5 29 -118.5 29c-35.333 0 -68.5 -6.66699 -99.5 -20s-58.167 -31.666 -81.5 -54.999s-41.666 -50.5 -54.999 -81.5s-20 -64.167 -20 -99.5c0 -4 0.166992 -8 0.5 -12s0.5 -8 0.5 -12c0.666992 -6.66699 -1.16602 -12.667 -5.49902 -18
s-10.166 -8.33301 -17.499 -9s-13.666 1.16602 -18.999 5.49902s-8.33301 10.166 -9 17.499c0 4.66699 -0.166992 9.33398 -0.5 14.001s-0.5 9.33398 -0.5 14.001c0 42 8 81.667 24 119s38 70 66 98s60.667 50 98 66s77 24 119 24c41.333 0 80.833 -8 118.5 -24
s70.834 -38.333 99.501 -67c12 26.667 30.667 48.5 56 65.5s53.666 25.5 84.999 25.5c42 0 78 -15 108 -45s45 -66.333 45 -109c0 -8.66699 -0.666992 -17.334 -2 -26.001s-3.66602 -17 -6.99902 -25h5h4c28.667 0 55.334 -5.33301 80.001 -16
s46.334 -25.334 65.001 -44.001s33.334 -40.334 44.001 -65.001s16 -51.334 16 -80.001c0 -28 -5.33301 -54.5 -16 -79.5s-25.334 -46.667 -44.001 -65s-40.334 -32.833 -65.001 -43.5s-51.334 -16 -80.001 -16v0zM178.993 178.998c-3.33301 0 -6.50098 0.666992 -9.50098 2
s-5.83301 3.33301 -8.5 6l-102 102c-5.33301 5.33301 -8 11.5 -8 18.5s2.66699 12.833 8 17.5c4.66699 5.33301 10.5 8 17.5 8s13.167 -2.66699 18.5 -8l84 -84l238 238c5.33301 4.66699 11.5 7 18.5 7s12.833 -2.33301 17.5 -7c5.33301 -5.33301 8 -11.5 8 -18.5
s-2.66699 -12.833 -8 -17.5l-256 -256c-2 -2.66699 -4.66699 -4.66699 -8 -6s-6.66602 -2 -9.99902 -2v0z" />
    <glyph glyph-name="uniE80E" unicode="&#xe80e;" 
d="M925 890c-12.667 8.66699 -27.834 16.667 -45.501 24s-37.834 14 -60.501 20c-22 6.66699 -45.833 12.334 -71.5 17.001s-52.667 8.66699 -81 12s-57.666 5.83301 -87.999 7.5s-61.166 2.5 -92.499 2.5s-62 -0.833008 -92 -2.5s-59.167 -4.16699 -87.5 -7.5
s-55.333 -7.33301 -81 -12s-49.5 -10.334 -71.5 -17.001c-22.667 -6 -42.834 -12.667 -60.501 -20s-32.834 -15.333 -45.501 -24c-16 -10 -28 -21 -36 -33s-12 -24.667 -12 -38v-614c0 -13.333 4 -26 12 -38s20 -23 36 -33c12.667 -8.66699 27.834 -16.667 45.501 -24
s37.834 -14 60.501 -20c22 -6.66699 45.833 -12.334 71.5 -17.001s52.667 -8.66699 81 -12s57.5 -5.83301 87.5 -7.5s60.667 -2.5 92 -2.5s62.166 0.833008 92.499 2.5s59.666 4.16699 87.999 7.5s55.333 7.33301 81 12s49.5 10.334 71.5 17.001
c22.667 6 42.834 12.667 60.501 20s32.834 15.333 45.501 24c16 10 28 21 36 33s12 24.667 12 38v614c0 13.333 -4 26 -12 38s-20 23 -36 33v0zM167 885c21.333 6 44.333 11.333 69 16s50.5 8.5 77.5 11.5s55 5.33301 84 7s58.5 2.5 88.5 2.5
c30.667 0 60.5 -0.833008 89.5 -2.5s57 -4 84 -7s52.833 -6.83301 77.5 -11.5s47.334 -10 68.001 -16c46 -12.667 77 -25.334 93 -38.001s24 -22 24 -28s-8 -15.167 -24 -27.5s-47 -25.166 -93 -38.499c-20.667 -5.33301 -43.334 -10.333 -68.001 -15
s-50.5 -8.5 -77.5 -11.5s-55 -5.33301 -84 -7s-58.833 -2.5 -89.5 -2.5c-30 0 -59.5 0.833008 -88.5 2.5s-57 4 -84 7s-52.833 6.83301 -77.5 11.5s-47.667 9.66699 -69 15c-46 13.333 -76.833 26.166 -92.5 38.499s-23.5 21.5 -23.5 27.5s7.83301 15.333 23.5 28
s46.5 25.334 92.5 38.001v0zM805 139c-20.667 -6 -43.3291 -11.333 -67.9961 -16s-50.5 -8.5 -77.5 -11.5s-55 -5.33301 -84 -7s-58.833 -2.5 -89.5 -2.5c-30 0 -59.5 0.833008 -88.5 2.5s-57 4 -84 7s-52.833 6.83301 -77.5 11.5s-47.667 10 -69 16
c-46 12.667 -76.833 25.334 -92.5 38.001s-23.5 22 -23.5 28v131c12.667 -8 27.667 -15.5 45 -22.5s36.666 -13.5 57.999 -19.5c22 -6 45.833 -11.333 71.5 -16s52.667 -8.66699 81 -12s57.5 -5.83301 87.5 -7.5s60.667 -2.5 92 -2.5s62.166 0.833008 92.499 2.5
s59.666 4.16699 87.999 7.5s55.333 7.33301 81 12s49.5 10 71.5 16c21.333 6 40.666 12.5 57.999 19.5s32.333 14.5 45 22.5v-131c0 -6 -8 -15.333 -24 -28s-47 -25.334 -93 -38.001v0zM805.005 344c-20.667 -6 -43.3291 -11.333 -67.9961 -16s-50.5 -8.5 -77.5 -11.5
s-55 -5.33301 -84 -7s-58.833 -2.5 -89.5 -2.5c-30 0 -59.5 0.833008 -88.5 2.5s-57 4 -84 7s-52.833 6.83301 -77.5 11.5s-47.667 10 -69 16c-46 12.667 -76.833 25.334 -92.5 38.001s-23.5 22 -23.5 28v131c12.667 -8 27.667 -15.5 45 -22.5s36.666 -13.5 57.999 -19.5
c22 -6 45.833 -11.333 71.5 -16s52.667 -8.66699 81 -12s57.5 -5.83301 87.5 -7.5s60.667 -2.5 92 -2.5s62.166 0.833008 92.499 2.5s59.666 4.16699 87.999 7.5s55.333 7.33301 81 12s49.5 10 71.5 16c21.333 6 40.666 12.5 57.999 19.5s32.333 14.5 45 22.5v-131
c0 -6 -8 -15.333 -24 -28s-47 -25.334 -93 -38.001v0zM805.01 549c-20.667 -6 -43.3291 -11.333 -67.9961 -16s-50.5 -8.5 -77.5 -11.5s-55 -5.33301 -84 -7s-58.833 -2.5 -89.5 -2.5c-30 0 -59.5 0.833008 -88.5 2.5s-57 4 -84 7s-52.833 6.83301 -77.5 11.5
s-47.667 10 -69 16c-46 12.667 -76.833 25.334 -92.5 38.001s-23.5 21.667 -23.5 27v132c12.667 -8 27.667 -15.5 45 -22.5s36.666 -13.5 57.999 -19.5c22 -6 45.833 -11.5 71.5 -16.5s52.667 -9 81 -12s57.5 -5.33301 87.5 -7s60.667 -2.5 92 -2.5
s62.166 0.833008 92.499 2.5s59.666 4 87.999 7s55.333 7 81 12s49.5 10.5 71.5 16.5c21.333 6 40.666 12.5 57.999 19.5s32.333 14.5 45 22.5v-132c0 -5.33301 -8 -14.333 -24 -27s-47 -25.334 -93 -38.001v0z" />
    <glyph glyph-name="uniE80F" unicode="&#xe80f;" 
d="M742 563h-25v77c0 32 -6 62 -18 90s-28.5 52.333 -49.5 73s-45.5 37 -73.5 49s-58 18 -90 18c-31.333 0 -61 -6 -89 -18s-52.5 -28.333 -73.5 -49s-37.5 -45 -49.5 -73s-18 -58 -18 -90v-77h-26c-20.667 0 -38.5 -7.5 -53.5 -22.5s-22.5 -33.167 -22.5 -54.5v-409
c0 -21.333 7.5 -39.5 22.5 -54.5s32.833 -22.5 53.5 -22.5h512c21.333 0 39.5 7.5 54.5 22.5s22.5 33.167 22.5 54.5v409c0 21.333 -7.5 39.5 -22.5 54.5s-33.167 22.5 -54.5 22.5v0zM307 640c0 49.333 17.5 91.5 52.5 126.5s77.167 52.5 126.5 52.5
c50 0 92.5 -17.5 127.5 -52.5s52.5 -77.167 52.5 -126.5v-77h-359v77v0zM768 77c0 -7.33301 -2.5 -13.5 -7.5 -18.5s-11.167 -7.5 -18.5 -7.5h-512c-6.66699 0 -12.5 2.5 -17.5 7.5s-7.5 11.167 -7.5 18.5v409c0 7.33301 2.5 13.5 7.5 18.5s10.833 7.5 17.5 7.5h512
c7.33301 0 13.5 -2.5 18.5 -7.5s7.5 -11.167 7.5 -18.5v-409v0z" />
    <glyph glyph-name="uniE810" unicode="&#xe810;" 
d="M391 -36h-3.50098c-1 0 -2.16699 0.333008 -3.5 1c-22.667 6 -45 13.5 -67 22.5s-43.333 19.5 -64 31.5c-6 3.33301 -9.83301 8.33301 -11.5 15s-0.833984 13 2.49902 19c4 8 7 16.167 9 24.5s3 16.5 3 24.5c0 28.667 -10 53 -30 73s-44 30 -72 30
c-8.66699 0 -17.167 -1.16699 -25.5 -3.5s-16.166 -5.5 -23.499 -9.5c-6 -3.33301 -12.333 -4 -19 -2s-12 6 -16 12c-12 20.667 -22.5 42 -31.5 64s-16.5 44.333 -22.5 67c-1.33301 6.66699 -0.5 13 2.5 19s7.83301 10 14.5 12c20.667 6.66699 37.334 19 50.001 37
s19 38 19 60s-6.33301 41.833 -19 59.5s-29.334 30.167 -50.001 37.5c-6.66699 2 -11.5 6 -14.5 12s-3.83301 12 -2.5 18c6 23.333 13.5 46 22.5 68s19.5 43.333 31.5 64c4 6 9.33301 9.83301 16 11.5s13 0.833984 19 -2.49902c7.33301 -4 15.166 -7 23.499 -9
s16.833 -3 25.5 -3c28 0 52 10 72 30s30 44 30 72c0 8.66699 -1 17.167 -3 25.5s-5 16.166 -9 23.499c-3.33301 6 -4.16602 12.333 -2.49902 19s5.5 12 11.5 16c20.667 12 42 22.5 64 31.5s44.333 16.5 67 22.5c6.66699 1.33301 13 0.5 19 -2.5s10 -7.83301 12 -14.5
c6.66699 -20.667 19 -37.5 37 -50.5s38 -19.5 60 -19.5s42 6.5 60 19.5s30.333 29.833 37 50.5c2 6.66699 6 11.5 12 14.5s12.333 3.83301 19 2.5c22.667 -6 45 -13.5 67 -22.5s43.333 -19.5 64 -31.5c6 -4 9.83301 -9.33301 11.5 -16s0.833984 -13 -2.49902 -19
c-4 -7.33301 -7 -15.166 -9 -23.499s-3 -16.833 -3 -25.5c0 -28 10 -52 30 -72s44 -30 72 -30c8.66699 0 17.167 1 25.5 3s16.166 5 23.499 9c6 3.33301 12.333 4.16602 19 2.49902s12 -5.5 16 -11.5c12 -20.667 22.5 -42 31.5 -64s16.5 -44.667 22.5 -68
c1.33301 -6 0.5 -12 -2.5 -18s-7.83301 -10 -14.5 -12c-20.667 -7.33301 -37.334 -19.833 -50.001 -37.5s-19 -37.5 -19 -59.5s6.33301 -42 19 -60s29.334 -30.333 50.001 -37c6.66699 -2 11.5 -6 14.5 -12s3.83301 -12.333 2.5 -19c-6 -22.667 -13.5 -45 -22.5 -67
s-19.5 -43.333 -31.5 -64c-4 -6 -9.33301 -10 -16 -12s-13 -1.33301 -19 2c-7.33301 4 -15.166 7.16699 -23.499 9.5s-16.833 3.5 -25.5 3.5c-28 0 -52 -10 -72 -30s-30 -44.333 -30 -73c0 -8 1 -16.167 3 -24.5s5 -16.5 9 -24.5c3.33301 -6 4.16602 -12.333 2.49902 -19
s-5.5 -11.667 -11.5 -15c-20.667 -12 -42 -22.5 -64 -31.5s-44.333 -16.5 -67 -22.5c-6.66699 -2 -13 -1.33301 -19 2s-10 8 -12 14c-6.66699 21.333 -19 38.333 -37 51s-38 19 -60 19s-42 -6.33301 -60 -19s-30.333 -29.667 -37 -51
c-2 -4.66699 -5.16699 -8.66699 -9.5 -12s-9.16602 -5 -14.499 -5v0zM511.999 102c28.667 0 55.167 -7.33301 79.5 -22s43.166 -34.667 56.499 -60l39.5 14.5c13 5 25.5 10.833 37.5 17.5c-2.66699 8 -4.66699 16.333 -6 25s-2 17 -2 25c0 42.667 15 79 45 109s66 45 108 45
c8.66699 0 17.334 -0.666992 26.001 -2s17 -3.33301 25 -6c6 12 11.667 24.5 17 37.5s10 26.167 14 39.5c-24.667 13.333 -44.5 32.166 -59.5 56.499s-22.5 50.833 -22.5 79.5s7.5 55.167 22.5 79.5s34.833 43.166 59.5 56.499c-4 13.333 -8.66699 26.333 -14 39
s-11 25.334 -17 38.001c-8 -2.66699 -16.333 -4.66699 -25 -6s-17.334 -2 -26.001 -2c-42 0 -78 15 -108 45s-45 66 -45 108c0 8.66699 0.666992 17.167 2 25.5s3.33301 16.5 6 24.5c-12 6.66699 -24.5 12.667 -37.5 18s-26.167 10 -39.5 14
c-13.333 -24.667 -32.166 -44.5 -56.499 -59.5s-50.833 -22.5 -79.5 -22.5s-55.167 7.5 -79.5 22.5s-43.166 34.833 -56.499 59.5c-13.333 -4 -26.5 -8.66699 -39.5 -14s-25.5 -11.333 -37.5 -18c2.66699 -8 4.66699 -16.167 6 -24.5s2 -16.833 2 -25.5
c0 -42 -15 -78 -45 -108s-66 -45 -108 -45c-8.66699 0 -17.334 0.666992 -26.001 2s-17 3.33301 -25 6c-6 -12.667 -11.667 -25.334 -17 -38.001s-10 -25.667 -14 -39c24.667 -13.333 44.5 -32.166 59.5 -56.499s22.5 -50.833 22.5 -79.5s-7.5 -55.167 -22.5 -79.5
s-34.833 -43.166 -59.5 -56.499c4 -13.333 8.66699 -26.5 14 -39.5s11 -25.5 17 -37.5c8 2.66699 16.333 4.66699 25 6s17.334 2 26.001 2c42 0 78 -15 108 -45s45 -66.333 45 -109c0 -8 -0.666992 -16.333 -2 -25s-3.33301 -17 -6 -25c12 -6.66699 24.5 -12.5 37.5 -17.5
l39.5 -14.5c13.333 25.333 32.166 45.333 56.499 60s50.833 22 79.5 22v0zM511.999 307c-42.667 0 -79 15 -109 45s-45 66.333 -45 109c0 42 15 78 45 108s66.333 45 109 45s79 -15 109 -45s45 -66 45 -108c0 -42.667 -15 -79 -45 -109s-66.333 -45 -109 -45v0zM511.999 563
c-28 0 -52 -10 -72 -30s-30 -44 -30 -72c0 -28.667 10 -53 30 -73s44 -30 72 -30s52 10 72 30s30 44.333 30 73c0 28 -10 52 -30 72s-44 30 -72 30v0z" />
    <glyph glyph-name="uniE811" unicode="&#xe811;" 
d="M794 870h-179.999v26c0 21.333 -7.5 39.5 -22.5 54.5s-32.833 22.5 -53.5 22.5h-103c-21.333 0 -39.5 -7.5 -54.5 -22.5s-22.5 -33.167 -22.5 -54.5v-26h-179c-21.333 0 -39.5 -7.5 -54.5 -22.5s-22.5 -32.833 -22.5 -53.5v-52c0 -16.667 4.83301 -31.5 14.5 -44.5
s22.167 -22.167 37.5 -27.5v-644c0 -21.333 7.5 -39.5 22.5 -54.5s32.833 -22.5 53.5 -22.5h512c21.333 0 39.5 7.5 54.5 22.5s22.5 33.167 22.5 54.5v644c15.333 5.33301 27.666 14.5 36.999 27.5s14 27.833 14 44.5v52c0 20.667 -7.5 38.5 -22.5 53.5
s-32.833 22.5 -53.5 22.5v0zM410.001 896c0 7.33301 2.5 13.5 7.5 18.5s10.833 7.5 17.5 7.5h103c6.66699 0 12.5 -2.5 17.5 -7.5s7.5 -11.167 7.5 -18.5v-26h-153v26v0zM742.001 0h-512c-6.66699 0 -12.5 2.5 -17.5 7.5s-7.5 11.167 -7.5 18.5v640h563v-640
c0 -7.33301 -2.5 -13.5 -7.5 -18.5s-11.167 -7.5 -18.5 -7.5v0zM819.001 742c0 -6.66699 -2.5 -12.5 -7.5 -17.5s-10.833 -7.5 -17.5 -7.5h-615c-6.66699 0 -12.5 2.5 -17.5 7.5s-7.5 10.833 -7.5 17.5v52c0 6.66699 2.5 12.5 7.5 17.5s10.833 7.5 17.5 7.5h615
c6.66699 0 12.5 -2.5 17.5 -7.5s7.5 -10.833 7.5 -17.5v-52v0zM640.001 614c-7.33301 0 -13.5 -2.5 -18.5 -7.5s-7.5 -10.833 -7.5 -17.5v-512c0 -7.33301 2.5 -13.5 7.5 -18.5s11.167 -7.5 18.5 -7.5s13.5 2.5 18.5 7.5s7.5 11.167 7.5 18.5v512
c0 6.66699 -2.5 12.5 -7.5 17.5s-11.167 7.5 -18.5 7.5v0zM486.001 614c-6.66699 0 -12.5 -2.5 -17.5 -7.5s-7.5 -10.833 -7.5 -17.5v-512c0 -7.33301 2.5 -13.5 7.5 -18.5s10.833 -7.5 17.5 -7.5c7.33301 0 13.5 2.5 18.5 7.5s7.5 11.167 7.5 18.5v512
c0 6.66699 -2.5 12.5 -7.5 17.5s-11.167 7.5 -18.5 7.5v0zM333.001 614c-7.33301 0 -13.5 -2.5 -18.5 -7.5s-7.5 -10.833 -7.5 -17.5v-512c0 -7.33301 2.5 -13.5 7.5 -18.5s11.167 -7.5 18.5 -7.5c6.66699 0 12.5 2.5 17.5 7.5s7.5 11.167 7.5 18.5v512
c0 6.66699 -2.5 12.5 -7.5 17.5s-10.833 7.5 -17.5 7.5v0z" />
    <glyph glyph-name="uniE812" unicode="&#xe812;" 
d="M282 154c-21.333 0 -39.5 7.5 -54.5 22.5s-22.5 32.833 -22.5 53.5c0 21.333 7.5 39.5 22.5 54.5s33.167 22.5 54.5 22.5c20.667 0 38.5 -7.5 53.5 -22.5s22.5 -33.167 22.5 -54.5c0 -20.667 -7.5 -38.5 -22.5 -53.5s-32.833 -22.5 -53.5 -22.5v0zM282 256
c-7.33301 0 -13.5 -2.5 -18.5 -7.5s-7.5 -11.167 -7.5 -18.5c0 -6.66699 2.5 -12.5 7.5 -17.5s11.167 -7.5 18.5 -7.5c6.66699 0 12.5 2.5 17.5 7.5s7.5 10.833 7.5 17.5c0 7.33301 -2.5 13.5 -7.5 18.5s-10.833 7.5 -17.5 7.5v0zM282 358c-21.333 0 -39.5 7.5 -54.5 22.5
s-22.5 33.167 -22.5 54.5s7.5 39.5 22.5 54.5s33.167 22.5 54.5 22.5c20.667 0 38.5 -7.5 53.5 -22.5s22.5 -33.167 22.5 -54.5s-7.5 -39.5 -22.5 -54.5s-32.833 -22.5 -53.5 -22.5v0zM282 461c-7.33301 0 -13.5 -2.5 -18.5 -7.5s-7.5 -11.167 -7.5 -18.5
c0 -6.66699 2.5 -12.5 7.5 -17.5s11.167 -7.5 18.5 -7.5c6.66699 0 12.5 2.5 17.5 7.5s7.5 10.833 7.5 17.5c0 7.33301 -2.5 13.5 -7.5 18.5s-10.833 7.5 -17.5 7.5v0zM282 563c-21.333 0 -39.5 7.5 -54.5 22.5s-22.5 33.167 -22.5 54.5s7.5 39.5 22.5 54.5
s33.167 22.5 54.5 22.5c20.667 0 38.5 -7.5 53.5 -22.5s22.5 -33.167 22.5 -54.5s-7.5 -39.5 -22.5 -54.5s-32.833 -22.5 -53.5 -22.5v0zM282 666c-7.33301 0 -13.5 -2.5 -18.5 -7.5s-7.5 -11.167 -7.5 -18.5s2.5 -13.5 7.5 -18.5s11.167 -7.5 18.5 -7.5
c6.66699 0 12.5 2.5 17.5 7.5s7.5 11.167 7.5 18.5s-2.5 13.5 -7.5 18.5s-10.833 7.5 -17.5 7.5v0zM691 563c-21.333 0 -39.5 7.5 -54.5 22.5s-22.5 33.167 -22.5 54.5s7.5 39.5 22.5 54.5s33.167 22.5 54.5 22.5s39.5 -7.5 54.5 -22.5s22.5 -33.167 22.5 -54.5
s-7.5 -39.5 -22.5 -54.5s-33.167 -22.5 -54.5 -22.5v0zM691 666c-6.66699 0 -12.5 -2.5 -17.5 -7.5s-7.5 -11.167 -7.5 -18.5s2.5 -13.5 7.5 -18.5s10.833 -7.5 17.5 -7.5c7.33301 0 13.5 2.5 18.5 7.5s7.5 11.167 7.5 18.5s-2.5 13.5 -7.5 18.5s-11.167 7.5 -18.5 7.5v0z
M691 358c-21.333 0 -39.5 7.5 -54.5 22.5s-22.5 33.167 -22.5 54.5s7.5 39.5 22.5 54.5s33.167 22.5 54.5 22.5s39.5 -7.5 54.5 -22.5s22.5 -33.167 22.5 -54.5s-7.5 -39.5 -22.5 -54.5s-33.167 -22.5 -54.5 -22.5v0zM691 461c-6.66699 0 -12.5 -2.5 -17.5 -7.5
s-7.5 -11.167 -7.5 -18.5c0 -6.66699 2.5 -12.5 7.5 -17.5s10.833 -7.5 17.5 -7.5c7.33301 0 13.5 2.5 18.5 7.5s7.5 10.833 7.5 17.5c0 7.33301 -2.5 13.5 -7.5 18.5s-11.167 7.5 -18.5 7.5v0zM691 154c-21.333 0 -39.5 7.5 -54.5 22.5s-22.5 32.833 -22.5 53.5
c0 21.333 7.5 39.5 22.5 54.5s33.167 22.5 54.5 22.5s39.5 -7.5 54.5 -22.5s22.5 -33.167 22.5 -54.5c0 -20.667 -7.5 -38.5 -22.5 -53.5s-33.167 -22.5 -54.5 -22.5v0zM691 256c-6.66699 0 -12.5 -2.5 -17.5 -7.5s-7.5 -11.167 -7.5 -18.5c0 -6.66699 2.5 -12.5 7.5 -17.5
s10.833 -7.5 17.5 -7.5c7.33301 0 13.5 2.5 18.5 7.5s7.5 10.833 7.5 17.5c0 7.33301 -2.5 13.5 -7.5 18.5s-11.167 7.5 -18.5 7.5v0zM794 0h-615c-35.333 0 -65.5 12.5 -90.5 37.5s-37.5 55.167 -37.5 90.5v614c0 35.333 12.5 65.5 37.5 90.5s55.167 37.5 90.5 37.5h615
c35.333 0 65.5 -12.5 90.5 -37.5s37.5 -55.167 37.5 -90.5v-614c0 -35.333 -12.5 -65.5 -37.5 -90.5s-55.167 -37.5 -90.5 -37.5v0zM179 819c-21.333 0 -39.5 -7.5 -54.5 -22.5s-22.5 -33.167 -22.5 -54.5v-614c0 -21.333 7.5 -39.5 22.5 -54.5s33.167 -22.5 54.5 -22.5h615
c20.667 0 38.5 7.5 53.5 22.5s22.5 33.167 22.5 54.5v614c0 21.333 -7.5 39.5 -22.5 54.5s-32.833 22.5 -53.5 22.5h-615v0z" />
    <glyph glyph-name="uniE813" unicode="&#xe813;" 
d="M486 0c-2 0 -3.99512 0.333008 -5.99512 1l-6 2c-1.33301 0.666992 -8.83301 5.16699 -22.5 13.5s-31.5 19.833 -53.5 34.5s-46.833 32.334 -74.5 53.001s-55.834 44.334 -84.501 71.001c-34.667 30.667 -65.5 61.834 -92.5 93.501s-50.5 63.167 -70.5 94.5
c-25.333 40 -44.333 80 -57 120s-19 79.667 -19 119c0 36.667 7 71.334 21 104.001s33.167 61.167 57.5 85.5s52.833 43.5 85.5 57.5s67.667 21 105 21c24.667 0 50 -4.5 76 -13.5s50.667 -22.167 74 -39.5c13.333 -10 25.833 -20.833 37.5 -32.5s21.5 -23.834 29.5 -36.501
c8.66699 12.667 18.834 24.834 30.501 36.501s24.167 22.5 37.5 32.5c23.333 17.333 47.833 30.5 73.5 39.5s51.167 13.5 76.5 13.5c37.333 0 72.166 -7 104.499 -21s60.666 -33.167 84.999 -57.5s43.666 -52.833 57.999 -85.5s21.5 -67.334 21.5 -104.001
c0 -39.333 -6.33301 -79 -19 -119s-31.667 -80 -57 -120c-20 -31.333 -43.667 -62.833 -71 -94.5s-58 -62.834 -92 -93.501c-29.333 -26.667 -57.833 -50.334 -85.5 -71.001s-52.334 -38.334 -74.001 -53.001s-39.334 -26.167 -53.001 -34.5s-21.167 -12.833 -22.5 -13.5
l-6 -2c-2 -0.666992 -4.33301 -1 -7 -1v0zM269.005 819c-30 0 -58.168 -5.66699 -84.501 -17s-49.5 -26.833 -69.5 -46.5s-35.667 -42.667 -47 -69s-17 -54.5 -17 -84.5c0 -39.333 6.83301 -77.333 20.5 -114s31.167 -71.5 52.5 -104.5s45.166 -64 71.499 -93
s51.833 -54.833 76.5 -77.5c45.333 -40.667 88.333 -74.667 129 -102s69 -46 85 -56c16.667 10 45.334 28.667 86.001 56s83.334 61.333 128.001 102c25.333 22.667 51.166 48.5 77.499 77.5s50.166 60 71.499 93s38.833 67.833 52.5 104.5s20.5 74.667 20.5 114
c0 30 -5.83301 58.167 -17.5 84.5s-27.334 49.333 -47.001 69s-42.667 35.167 -69 46.5s-54.5 17 -84.5 17c-43.333 0 -83.666 -14.667 -120.999 -44s-61.333 -60 -72 -92c-2 -5.33301 -5.16699 -9.5 -9.5 -12.5s-9.5 -4.5 -15.5 -4.5c-5.33301 0 -10.166 1.5 -14.499 4.5
s-7.5 7.16699 -9.5 12.5c-10.667 32 -34.667 62.667 -72 92s-77.666 44 -120.999 44v0z" />
    <glyph glyph-name="uniE814" unicode="&#xe814;" 
d="M794 0c-2.66699 0 -4.99902 0.333008 -6.99902 1l-6 2l-269 147l-269 -147c-4.66699 -2 -9.33398 -3 -14.001 -3s-9 1.66699 -13 5c-4 2.66699 -7 6.33398 -9 11.001s-2.66699 9.33398 -2 14.001l49 294l-195 195c-3.33301 4 -5.66602 8.33301 -6.99902 13
s-1.33301 9 0 13c2 4.66699 4.66699 8.66699 8 12s7.66602 5.33301 12.999 6l294 49l122 244c2 4.66699 5.16699 8.16699 9.5 10.5s8.83301 3.5 13.5 3.5s9.16699 -1.16699 13.5 -3.5s7.5 -5.83301 9.5 -10.5l122 -244l294 -49
c5.33301 -0.666992 9.66602 -2.66699 12.999 -6s6 -7.33301 8 -12c1.33301 -4 1.33301 -8.33301 0 -13s-3.66602 -9 -6.99902 -13l-195 -195l49 -294c0.666992 -4.66699 0 -9.33398 -2 -14.001s-5 -8.33398 -9 -11.001c-2 -2 -4.16699 -3.33301 -6.5 -4s-4.83301 -1 -7.5 -1
v0zM512.001 205c2 0 4.00195 -0.333008 6.00195 -1l6 -2l236 -129l-43 256c-0.666992 4 -0.333984 8 0.999023 12s3.33301 7.33301 6 10l170 170l-258 43c-4 0.666992 -7.66699 2.16699 -11 4.5s-6 5.16602 -8 8.49902l-105 211l-105 -211
c-2 -3.33301 -4.66699 -6.16602 -8 -8.49902s-7 -3.83301 -11 -4.5l-258 -43l170 -170c2.66699 -2.66699 4.66699 -6 6 -10s1.66602 -8 0.999023 -12l-43 -256l236 129l6 2c2 0.666992 4 1 6 1v0z" />
    <glyph glyph-name="uniE815" unicode="&#xe815;" 
d="M794 0c-2.66699 0 -5 0.333984 -7 1.00098l-6 2l-153 84c-6.66699 3.33301 -11 8.33301 -13 15s-1 13.334 3 20.001c3.33301 6 8.33301 10 15 12s13 1.33301 19 -2l108 -59l-9 51c-0.666992 6.66699 1 13 5 19s9.33301 9.33301 16 10c7.33301 1.33301 13.833 0 19.5 -4
s9.16699 -9.66699 10.5 -17l17 -102c0.666992 -4.66699 0 -9.33398 -2 -14.001s-5 -8.33398 -9 -11.001c-2 -2 -4.16699 -3.33301 -6.5 -4s-4.83301 -1 -7.5 -1v0zM759 205.001c-6 0 -11.332 2 -15.999 6s-7.66699 9 -9 15l-17 103c-0.666992 4 -0.333984 8 0.999023 12
s3.33301 7.33301 6 10l51 51c5.33301 5.33301 11.5 8 18.5 8s13.167 -2.66699 18.5 -8c4.66699 -4.66699 7 -10.667 7 -18s-2.33301 -13.333 -7 -18l-42 -42l15 -89c0.666992 -7.33301 -1 -13.833 -5 -19.5s-9.33301 -9.16699 -16 -10.5h-2.5h-2.5v0zM896.001 461.001
c-3.33301 0 -6.5 0.666016 -9.5 1.99902s-5.83301 3 -8.5 5c-5.33301 5.33301 -8 11.5 -8 18.5s2.66699 13.167 8 18.5l16 16l-105 17c-6.66699 1.33301 -12 4.83301 -16 10.5s-5.66699 11.834 -5 18.501c1.33301 7.33301 4.83301 13 10.5 17s12.167 5.33301 19.5 4l153 -25
c5.33301 -0.666992 9.66602 -2.66699 12.999 -6s6 -7.33301 8 -12c1.33301 -4 1.33301 -8.33301 0 -13s-3.66602 -8.66699 -6.99902 -12l-51 -52c-2.66699 -2 -5.5 -3.66699 -8.5 -5s-6.16699 -2 -9.5 -2v0zM691.001 555l-2.00098 0.000976562h-2l-51 9
c-4 0.666992 -7.66699 2.16699 -11 4.5s-6 5.16602 -8 8.49902l-51 103c-3.33301 6 -3.83301 12.333 -1.5 19s6.5 11.667 12.5 15c6.66699 3.33301 13.334 3.83301 20.001 1.5s11.667 -6.5 15 -12.5l45 -91l38 -6c7.33301 -1.33301 13 -4.83301 17 -10.5
s5.33301 -12.167 4 -19.5c-0.666992 -6 -3.5 -11 -8.5 -15s-10.5 -6 -16.5 -6v0zM230 0.000976562c-2.66699 0 -5.16504 0.330078 -7.49805 0.99707s-4.5 2 -6.5 4c-4 2.66699 -7 6.33398 -9 11.001s-2.66699 9.33398 -2 14.001l49 294l-195 195
c-3.33301 4 -5.66602 8.33301 -6.99902 13s-1.33301 9 0 13c2 4.66699 4.66699 8.66699 8 12s7.66602 5.33301 12.999 6l294 49l122 244c2 4.66699 5.16699 8.16699 9.5 10.5s8.83301 3.5 13.5 3.5v0v0c4.66699 0 9.16699 -1.16699 13.5 -3.5s7.5 -5.83301 9.5 -10.5l25 -51
c3.33301 -6 4 -12.5 2 -19.5s-6.33301 -11.833 -13 -14.5c-6 -3.33301 -12.5 -3.83301 -19.5 -1.5s-11.833 6.5 -14.5 12.5l-3 6l-105 -211c-2 -3.33301 -4.66699 -6.16602 -8 -8.49902s-7 -3.83301 -11 -4.5l-258 -43l170 -170c2.66699 -2.66699 4.66699 -6 6 -10
s1.66602 -8 0.999023 -12l-43 -256l236 129c3.33301 2 7.33301 3 12 3s8.66699 -1 12 -3l26 -14c6 -3.33301 10 -8.5 12 -15.5s1.33301 -13.5 -2 -19.5s-8.33301 -10 -15 -12s-13.334 -1.33301 -20.001 2l-13 7l-269 -147l-6 -2c-2 -0.666992 -4.33301 -1 -7 -1v0z" />
    <glyph glyph-name="uniE816" unicode="&#xe816;" 
d="M282 546c-6.66699 0 -12.333 1.99805 -17 5.99805s-7.66699 9.33301 -9 16c-0.666992 6.66699 1 12.834 5 18.501s9.33301 9.16699 16 10.5l90 15l20 39c2.66699 6.66699 7.5 11.167 14.5 13.5s13.5 1.83301 19.5 -1.5c6.66699 -3.33301 11 -8.33301 13 -15
s1.33301 -13 -2 -19l-25 -52c-2 -3.33301 -4.66699 -6.16602 -8 -8.49902s-7 -3.83301 -11 -4.5l-102 -18h-2h-2v0zM128.001 460.998c-3.33301 0 -6.5 0.666992 -9.5 2s-5.83301 3 -8.5 5l-51 51c-3.33301 4 -5.66602 8.33301 -6.99902 13s-1.33301 9 0 13
c2 4.66699 4.66699 8.66699 8 12s7.66602 5.33301 12.999 6l102 17c6.66699 1.33301 13 -0.166992 19 -4.5s9.33301 -9.83301 10 -16.5c1.33301 -7.33301 0 -13.833 -4 -19.5s-9.66699 -9.16699 -17 -10.5l-53 -8l16 -17c5.33301 -4.66699 8 -10.5 8 -17.5
s-2.66699 -13.167 -8 -18.5c-2.66699 -2 -5.5 -3.66699 -8.5 -5s-6.16699 -2 -9.5 -2v0zM759.001 204.998c-6 0 -11.332 2 -15.999 6s-7.66699 9 -9 15l-17 103c-0.666992 4 -0.333984 8 0.999023 12s3.33301 7.33301 6 10l51 51c5.33301 5.33301 11.5 8 18.5 8
s13.167 -2.66699 18.5 -8c4.66699 -4.66699 7 -10.667 7 -18s-2.33301 -13.333 -7 -18l-42 -42l15 -89c0.666992 -7.33301 -1 -13.833 -5 -19.5s-9.33301 -9.16699 -16 -10.5h-2.5h-2.5v0zM794.002 -0.00195312c-2.66699 0 -5 0.333984 -7 1.00098l-6 2l-153 84
c-6.66699 3.33301 -11 8.33301 -13 15s-1 13.334 3 20.001c3.33301 6 8.33301 10 15 12s13 1.33301 19 -2l108 -59l-9 51c-0.666992 6.66699 1 13 5 19s9.33301 9.33301 16 10c7.33301 1.33301 13.833 0 19.5 -4s9.16699 -9.66699 10.5 -17l17 -102
c0.666992 -4.66699 0 -9.33398 -2 -14.001s-5 -8.33398 -9 -11.001c-2 -2 -4.16699 -3.33301 -6.5 -4s-4.83301 -1 -7.5 -1v0zM273.002 255.999h-1.99902h-2c-7.33301 1.33301 -13 4.83301 -17 10.5s-5.33301 12.167 -4 19.5l6 38l-42 42c-4.66699 4.66699 -7 10.667 -7 18
s2.33301 13.333 7 18c5.33301 5.33301 11.5 8 18.5 8s13.167 -2.66699 18.5 -8l51 -51c2.66699 -2.66699 4.66699 -6 6 -10s1.66602 -8 0.999023 -12l-9 -52c-0.666992 -6 -3.5 -11 -8.5 -15s-10.5 -6 -16.5 -6v0zM230.003 -0.000976562
c-2.66699 0 -5.16699 0.332031 -7.5 0.999023s-4.5 2 -6.5 4c-4 2.66699 -7 6.33398 -9 11.001s-2.66699 9.33398 -2 14.001l26 153c0.666992 7.33301 4 13 10 17s12.333 5.33301 19 4c7.33301 -0.666992 13 -4 17 -10s5.33301 -12.333 4 -19l-17 -102l57 31
c6 3.33301 12.333 4 19 2s11.667 -6 15 -12c3.33301 -6.66699 4 -13.334 2 -20.001s-6 -11.667 -12 -15l-102 -56l-6 -2c-2 -0.666992 -4.33301 -1 -7 -1v0zM435.003 111.998c-4.66699 0 -9 1.16602 -13 3.49902s-7 5.5 -9 9.5c-3.33301 6 -4 12.5 -2 19.5s6 12.167 12 15.5
l77 42c3.33301 2 7.33301 3 12 3s8.66699 -1 12 -3l26 -14c6 -3.33301 10 -8.5 12 -15.5s1.33301 -13.5 -2 -19.5s-8.33301 -10 -15 -12s-13.334 -1.33301 -20.001 2l-13 7l-65 -35c-1.33301 -1.33301 -3.16602 -2.16602 -5.49902 -2.49902s-4.5 -0.5 -6.5 -0.5v0z
M896.003 460.997c-3.33301 0 -6.5 0.666016 -9.5 1.99902s-5.83301 3 -8.5 5c-5.33301 5.33301 -8 11.5 -8 18.5s2.66699 13.167 8 18.5l16 16l-105 17c-6.66699 1.33301 -12 4.83301 -16 10.5s-5.66699 11.834 -5 18.501c1.33301 7.33301 4.83301 13 10.5 17
s12.167 5.33301 19.5 4l153 -25c5.33301 -0.666992 9.66602 -2.66699 12.999 -6s6 -7.33301 8 -12c1.33301 -4 1.33301 -8.33301 0 -13s-3.66602 -8.66699 -6.99902 -12l-51 -52c-2.66699 -2 -5.5 -3.66699 -8.5 -5s-6.16699 -2 -9.5 -2v0zM691.003 554.996
l-2.00098 0.000976562h-2l-51 9c-4 0.666992 -7.66699 2.16699 -11 4.5s-6 5.16602 -8 8.49902l-51 103c-3.33301 6 -3.83301 12.333 -1.5 19s6.5 11.667 12.5 15c6.66699 3.33301 13.334 3.83301 20.001 1.5s11.667 -6.5 15 -12.5l45 -91l38 -6
c7.33301 -1.33301 13 -4.83301 17 -10.5s5.33301 -12.167 4 -19.5c-0.666992 -6 -3.5 -11 -8.5 -15s-10.5 -6 -16.5 -6v0zM461.002 716.997c-2 0 -4 0.166016 -6 0.499023s-4 1.16602 -6 2.49902c-6 2.66699 -10.167 7.33398 -12.5 14.001s-1.83301 13.334 1.5 20.001
l51 102c2 4.66699 5.16699 8.16699 9.5 10.5s8.83301 3.5 13.5 3.5v0v0c4.66699 0 9.16699 -1.16699 13.5 -3.5s7.5 -5.83301 9.5 -10.5l25 -51c3.33301 -6 4 -12.5 2 -19.5s-6.33301 -11.833 -13 -14.5c-6 -3.33301 -12.5 -3.83301 -19.5 -1.5s-11.833 6.5 -14.5 12.5l-3 6
l-28 -57c-2.66699 -4.66699 -6 -8.16699 -10 -10.5s-8.33301 -3.5 -13 -3.5v0z" />
    <glyph glyph-name="uniE817" unicode="&#xe817;" 
d="M77 0c-7.33301 0 -13.5 2.5 -18.5 7.5s-7.5 11.167 -7.5 18.5v768c0 6.66699 2.5 12.5 7.5 17.5s11.167 7.5 18.5 7.5c6.66699 0 12.5 -2.5 17.5 -7.5s7.5 -10.833 7.5 -17.5v-768c0 -7.33301 -2.5 -13.5 -7.5 -18.5s-10.833 -7.5 -17.5 -7.5v0zM179 461
c-2.66699 0 -5.33594 0.328125 -8.00293 0.995117s-5 2 -7 4c-6 4 -9.5 9.5 -10.5 16.5s0.833008 13.5 5.5 19.5c1.33301 2 20.666 21.167 57.999 57.5s84.333 54.5 141 54.5c43.333 0 80.333 -6.16699 111 -18.5s58.667 -25.166 84 -38.499
c22.667 -12 44.5 -22.5 65.5 -31.5s45.167 -13.5 72.5 -13.5c28 0 54 6 78 18s46 27.333 66 46s37.833 39.167 53.5 61.5s29.167 43.833 40.5 64.5c-18 -10 -38.333 -18.5 -61 -25.5s-47.334 -10.5 -74.001 -10.5c-56.667 0 -101.667 11.833 -135 35.5
s-62.666 48.167 -87.999 73.5c-25.333 26 -51.333 48.333 -78 67s-63 28 -109 28c-56.667 0 -101.5 -15.167 -134.5 -45.5s-49.5 -45.833 -49.5 -46.5c-4.66699 -5.33301 -10.5 -8.5 -17.5 -9.5s-13.167 0.5 -18.5 4.5c-6 4 -9.5 9.5 -10.5 16.5s0.833008 13.5 5.5 19.5
c0.666992 1.33301 6.33398 7.83301 17.001 19.5s25.5 24.5 44.5 38.5s42.333 26.667 70 38s58.834 17 93.501 17c56.667 0 101.5 -12 134.5 -36s62.5 -48.667 88.5 -74c25.333 -25.333 51.333 -47.5 78 -66.5s63 -28.5 109 -28.5c56.667 0 101.334 15.167 134.001 45.5
s49.334 45.833 50.001 46.5c4 4.66699 9 7.83398 15 9.50098s11.667 0.833984 17 -2.49902c6 -2.66699 10.167 -7 12.5 -13s2.5 -11.667 0.5 -17c-0.666992 -2 -7.66699 -19.333 -21 -52s-33 -68.667 -59 -108c-16 -23.333 -32.5 -44.5 -49.5 -63.5
s-34.5 -35.167 -52.5 -48.5c-23.333 -18 -47.666 -31.333 -72.999 -40s-51 -13 -77 -13c-33.333 0 -62.833 5.33301 -88.5 16s-50.167 22.334 -73.5 35.001c-24.667 12.667 -50 24.334 -76 35.001s-57.667 16 -95 16c-44 0 -81.333 -15.167 -112 -45.5
s-46 -45.833 -46 -46.5c-2.66699 -3.33301 -5.83398 -5.83301 -9.50098 -7.5s-7.5 -2.5 -11.5 -2.5v0z" />
    <glyph glyph-name="uniE818" unicode="&#xe818;" 
d="M896 666h-819c-21.333 0 -39.5 -7.5 -54.5 -22.5s-22.5 -33.167 -22.5 -54.5v-461c0 -21.333 7.5 -39.5 22.5 -54.5s33.167 -22.5 54.5 -22.5h819c21.333 0 39.5 7.5 54.5 22.5s22.5 33.167 22.5 54.5v461c0 21.333 -7.5 39.5 -22.5 54.5s-33.167 22.5 -54.5 22.5v0z
M896 614h2h2l-385 -257c-7.33301 -5.33301 -16.833 -8 -28.5 -8s-21.167 2.66699 -28.5 8l-386 257h2.5h2.5h819v0zM896 102h-819.001c-7.33301 0 -13.5 2.5 -18.5 7.5s-7.5 11.167 -7.5 18.5v439l379 -253c8 -5.33301 16.833 -9.33301 26.5 -12s19.5 -4 29.5 -4
c10.667 0 20.834 1.33301 30.501 4s18.5 6.66699 26.5 12l379 253v-439c0 -7.33301 -2.5 -13.5 -7.5 -18.5s-11.167 -7.5 -18.5 -7.5v0z" />
    <glyph glyph-name="uniE819" unicode="&#xe819;" 
d="M486 -51c-31.333 0 -61 6 -89 18s-52.5 28.5 -73.5 49.5s-37.5 45.5 -49.5 73.5s-18 57.667 -18 89v615c0 49.333 17.5 91.5 52.5 126.5s77.167 52.5 126.5 52.5s91.5 -17.5 126.5 -52.5s52.5 -77.167 52.5 -126.5v-564c0 -35.333 -12.5 -65.5 -37.5 -90.5
s-55.167 -37.5 -90.5 -37.5s-65.5 12.5 -90.5 37.5s-37.5 55.167 -37.5 90.5v308c0 6.66699 2.5 12.5 7.5 17.5s11.167 7.5 18.5 7.5s13.5 -2.5 18.5 -7.5s7.5 -10.833 7.5 -17.5v-308c0 -20.667 7.5 -38.5 22.5 -53.5s32.833 -22.5 53.5 -22.5c21.333 0 39.5 7.5 54.5 22.5
s22.5 32.833 22.5 53.5v564c0 35.333 -12.5 65.5 -37.5 90.5s-55.167 37.5 -90.5 37.5s-65.5 -12.5 -90.5 -37.5s-37.5 -55.167 -37.5 -90.5v-615c0 -49.333 17.5 -91.5 52.5 -126.5s77.167 -52.5 126.5 -52.5c50 0 92.5 17.5 127.5 52.5s52.5 77.167 52.5 126.5v359
c0 6.66699 2.5 12.5 7.5 17.5s10.833 7.5 17.5 7.5c7.33301 0 13.5 -2.5 18.5 -7.5s7.5 -10.833 7.5 -17.5v-359c0 -31.333 -6 -61 -18 -89s-28.5 -52.5 -49.5 -73.5s-45.5 -37.5 -73.5 -49.5s-58 -18 -90 -18v0z" />
    <glyph glyph-name="uniE81A" unicode="&#xe81a;" 
d="M1001 441l-138.004 316c-7.33301 17.333 -20.166 32 -38.499 44s-37.166 18 -56.499 18h-512c-19.333 0 -38.166 -6 -56.499 -18s-31.166 -26.667 -38.499 -44l-138 -316c-6.66699 -14.667 -12.167 -32.334 -16.5 -53.001s-6.5 -39 -6.5 -55v-205
c0 -21.333 7.5 -39.5 22.5 -54.5s33.167 -22.5 54.5 -22.5h870c21.333 0 39.5 7.5 54.5 22.5s22.5 33.167 22.5 54.5v205c0 16 -2.16699 34.333 -6.5 55s-9.83301 38.334 -16.5 53.001v0zM207.996 736c3.33301 8.66699 9.83301 16.167 19.5 22.5s19.167 9.5 28.5 9.5h512
c9.33301 0 18.833 -3.16699 28.5 -9.5s16.167 -13.833 19.5 -22.5l138 -315c1.33301 -2 2.33301 -4 3 -6l2 -6c-2 0 -4 0.166992 -6 0.5s-4 0.5 -6 0.5h-307c-7.33301 0 -13.5 -2.5 -18.5 -7.5s-7.5 -11.167 -7.5 -18.5v-26c0 -28 -10 -52 -30 -72s-44 -30 -72 -30
s-52 10 -72 30s-30 44 -30 72v26c0 7.33301 -2.5 13.5 -7.5 18.5s-11.167 7.5 -18.5 7.5h-307c-2 0 -4 -0.166992 -6 -0.5s-4 -0.5 -6 -0.5l2 6c0.666992 2 1.66699 4 3 6l138 315v0zM972.996 128c0 -7.33301 -2.5 -13.5 -7.5 -18.5s-11.167 -7.5 -18.5 -7.5h-870
c-7.33301 0 -13.5 2.5 -18.5 7.5s-7.5 11.167 -7.5 18.5v205c0 6.66699 2.5 12.5 7.5 17.5s11.167 7.5 18.5 7.5h281c0 -42 15 -78 45 -108s66.333 -45 109 -45s79 15 109 45s45 66 45 108h281c7.33301 0 13.5 -2.5 18.5 -7.5s7.5 -10.833 7.5 -17.5v-205v0z" />
    <glyph glyph-name="uniE81B" unicode="&#xe81b;" 
d="M1017 452c-0.666992 1.33301 -14.667 15.5 -42 42.5s-63.666 56.833 -108.999 89.5c-26.667 19.333 -53.5 36.5 -80.5 51.5s-53.5 28.167 -79.5 39.5c-33.333 14 -66.333 24.5 -99 31.5s-64.334 10.5 -95.001 10.5s-62.334 -3.5 -95.001 -10.5s-65.667 -17.5 -99 -31.5
c-26 -11.333 -52.5 -24.5 -79.5 -39.5s-53.833 -32.167 -80.5 -51.5c-45.333 -32.667 -81.666 -62.5 -108.999 -89.5s-41.333 -41.167 -42 -42.5c-4.66699 -4.66699 -7 -10.334 -7 -17.001s2.33301 -12.334 7 -17.001c0.666992 -1.33301 14.667 -15.5 42 -42.5
s63.666 -56.833 108.999 -89.5c26.667 -18.667 53.5 -35.667 80.5 -51s53.5 -28.333 79.5 -39c33.333 -14 66.333 -24.5 99 -31.5s64.334 -10.5 95.001 -10.5s62.334 3.5 95.001 10.5s65.667 17.5 99 31.5c26 10.667 52.5 23.667 79.5 39s53.833 32.333 80.5 51
c45.333 32.667 81.666 62.5 108.999 89.5s41.333 41.167 42 42.5c4.66699 4.66699 7 10.334 7 17.001s-2.33301 12.334 -7 17.001v0zM644 643c23.333 -19.333 41.335 -42.666 54.002 -69.999s19 -56.333 19 -87c0 -28 -5.33301 -54.5 -16 -79.5s-25.334 -46.667 -44.001 -65
s-40.5 -32.833 -65.5 -43.5s-51.5 -16 -79.5 -16s-54.5 5.33301 -79.5 16s-46.833 25.167 -65.5 43.5s-33.334 40 -44.001 65s-16 51.5 -16 79.5c0 30.667 6.33301 59.667 19 87s30.667 50.666 54 69.999c21.333 6.66699 43 12.167 65 16.5s44.333 6.5 67 6.5
s45 -2.16699 67 -6.5s43.667 -9.83301 65 -16.5v0zM835.002 327c-19.333 -14 -41.166 -28.167 -65.499 -42.5s-50.333 -27.5 -78 -39.5s-56.667 -21.667 -87 -29s-61.166 -11 -92.499 -11s-62.166 3.66699 -92.499 11s-59.333 17 -87 29s-53.667 25.167 -78 39.5
s-46.166 28.5 -65.499 42.5c-30 21.333 -56 41.833 -78 61.5s-38.667 35.167 -50 46.5c11.333 11.333 28 26.833 50 46.5s48 40.167 78 61.5c13.333 10 28 20 44 30s32.667 19.667 50 29c-8.66699 -18 -15.334 -36.667 -20.001 -56s-7 -39.333 -7 -60
c0 -35.333 6.66699 -68.5 20 -99.5s31.666 -58 54.999 -81s50.5 -41.333 81.5 -55s64.167 -20.5 99.5 -20.5s68.5 6.83301 99.5 20.5s58.167 32 81.5 55s41.666 50 54.999 81s20 64.167 20 99.5c0 20.667 -2.33301 40.667 -7 60s-11.334 38 -20.001 56
c17.333 -9.33301 34 -19 50 -29s30.667 -20 44 -30c30 -21.333 56 -41.833 78 -61.5s38.667 -35.167 50 -46.5c-11.333 -11.333 -28 -26.833 -50 -46.5s-48 -40.167 -78 -61.5v0z" />
    <glyph glyph-name="uniE81C" unicode="&#xe81c;" 
d="M947 768h-77v128c0 21.333 -7.5 39.5 -22.5 54.5s-32.833 22.5 -53.5 22.5h-564c-20.667 0 -38.5 -7.5 -53.5 -22.5s-22.5 -33.167 -22.5 -54.5v-128h-77c-21.333 0 -39.5 -7.5 -54.5 -22.5s-22.5 -33.167 -22.5 -54.5v-461c0 -20.667 7.5 -38.5 22.5 -53.5
s33.167 -22.5 54.5 -22.5h77v-128c0 -21.333 7.5 -39.5 22.5 -54.5s32.833 -22.5 53.5 -22.5h564c20.667 0 38.5 7.5 53.5 22.5s22.5 33.167 22.5 54.5v128h77c21.333 0 39.5 7.5 54.5 22.5s22.5 32.833 22.5 53.5v461c0 21.333 -7.5 39.5 -22.5 54.5
s-33.167 22.5 -54.5 22.5v0zM205 896c0 7.33301 2.5 13.5 7.5 18.5s10.833 7.5 17.5 7.5h564c6.66699 0 12.5 -2.5 17.5 -7.5s7.5 -11.167 7.5 -18.5v-128h-614v128v0zM794 0h-564c-6.66699 0 -12.5 2.5 -17.5 7.5s-7.5 11.167 -7.5 18.5v332h614v-332
c0 -7.33301 -2.5 -13.5 -7.5 -18.5s-10.833 -7.5 -17.5 -7.5v0zM973 230c0 -6.66699 -2.5 -12.5 -7.5 -17.5s-11.167 -7.5 -18.5 -7.5h-77v153h26c7.33301 0 13.5 2.5 18.5 7.5s7.5 11.167 7.5 18.5s-2.5 13.5 -7.5 18.5s-11.167 7.5 -18.5 7.5h-768
c-7.33301 0 -13.5 -2.5 -18.5 -7.5s-7.5 -11.167 -7.5 -18.5s2.5 -13.5 7.5 -18.5s11.167 -7.5 18.5 -7.5h26v-153h-77c-7.33301 0 -13.5 2.5 -18.5 7.5s-7.5 10.833 -7.5 17.5v461c0 7.33301 2.5 13.5 7.5 18.5s11.167 7.5 18.5 7.5h870c7.33301 0 13.5 -2.5 18.5 -7.5
s7.5 -11.167 7.5 -18.5v-461v0zM742 256h-460c-7.33301 0 -13.5 2.5 -18.5 7.5s-7.5 11.167 -7.5 18.5c0 6.66699 2.5 12.5 7.5 17.5s11.167 7.5 18.5 7.5h460c7.33301 0 13.5 -2.5 18.5 -7.5s7.5 -10.833 7.5 -17.5c0 -7.33301 -2.5 -13.5 -7.5 -18.5
s-11.167 -7.5 -18.5 -7.5v0zM742 154h-460c-7.33301 0 -13.5 2.5 -18.5 7.5s-7.5 10.833 -7.5 17.5c0 7.33301 2.5 13.5 7.5 18.5s11.167 7.5 18.5 7.5h460c7.33301 0 13.5 -2.5 18.5 -7.5s7.5 -11.167 7.5 -18.5c0 -6.66699 -2.5 -12.5 -7.5 -17.5s-11.167 -7.5 -18.5 -7.5
v0zM742 51h-460c-7.33301 0 -13.5 2.5 -18.5 7.5s-7.5 11.167 -7.5 18.5c0 6.66699 2.5 12.5 7.5 17.5s11.167 7.5 18.5 7.5h460c7.33301 0 13.5 -2.5 18.5 -7.5s7.5 -10.833 7.5 -17.5c0 -7.33301 -2.5 -13.5 -7.5 -18.5s-11.167 -7.5 -18.5 -7.5v0zM845 512
c-21.333 0 -39.5 7.5 -54.5 22.5s-22.5 33.167 -22.5 54.5s7.5 39.5 22.5 54.5s33.167 22.5 54.5 22.5s39.5 -7.5 54.5 -22.5s22.5 -33.167 22.5 -54.5s-7.5 -39.5 -22.5 -54.5s-33.167 -22.5 -54.5 -22.5v0zM845 614c-7.33301 0 -13.5 -2.5 -18.5 -7.5
s-7.5 -10.833 -7.5 -17.5c0 -7.33301 2.5 -13.5 7.5 -18.5s11.167 -7.5 18.5 -7.5c6.66699 0 12.5 2.5 17.5 7.5s7.5 11.167 7.5 18.5c0 6.66699 -2.5 12.5 -7.5 17.5s-10.833 7.5 -17.5 7.5v0z" />
    <glyph glyph-name="uniE81D" unicode="&#xe81d;" 
d="M914 684l-230 230c-2.66699 2.66699 -5.5 4.66699 -8.5 6s-6.16699 2 -9.5 2h-487c-21.333 0 -39.5 -7.5 -54.5 -22.5s-22.5 -33.167 -22.5 -54.5v-819c0 -21.333 7.5 -39.5 22.5 -54.5s33.167 -22.5 54.5 -22.5h666c21.333 0 39.5 7.5 54.5 22.5s22.5 33.167 22.5 54.5
v640c0 3.33301 -0.666992 6.5 -2 9.5s-3.33301 5.83301 -6 8.5v0zM860 666h-169c-6.66699 0 -12.5 2.5 -17.5 7.5s-7.5 10.833 -7.5 17.5v169l194 -194v0zM870 26c0 -7.33301 -2.5 -13.5 -7.5 -18.5s-10.833 -7.5 -17.5 -7.5h-666c-6.66699 0 -12.5 2.5 -17.5 7.5
s-7.5 11.167 -7.5 18.5v819c0 6.66699 2.5 12.5 7.5 17.5s10.833 7.5 17.5 7.5h435v-179c0 -21.333 7.5 -39.5 22.5 -54.5s33.167 -22.5 54.5 -22.5h179v-588v0z" />
    <glyph glyph-name="uniE81E" unicode="&#xe81e;" 
d="M914 684l-230 230c-2.66699 2.66699 -5.5 4.66699 -8.5 6s-6.16699 2 -9.5 2h-487c-21.333 0 -39.5 -7.5 -54.5 -22.5s-22.5 -33.167 -22.5 -54.5v-819c0 -21.333 7.5 -39.5 22.5 -54.5s33.167 -22.5 54.5 -22.5h666c21.333 0 39.5 7.5 54.5 22.5s22.5 33.167 22.5 54.5
v640c0 3.33301 -0.666992 6.5 -2 9.5s-3.33301 5.83301 -6 8.5v0zM860 666h-169c-6.66699 0 -12.5 2.5 -17.5 7.5s-7.5 10.833 -7.5 17.5v169l194 -194v0zM845 0h-666c-6.66699 0 -12.5 2.5 -17.5 7.5s-7.5 11.167 -7.5 18.5v819c0 6.66699 2.5 12.5 7.5 17.5
s10.833 7.5 17.5 7.5h435v-179c0 -21.333 7.5 -39.5 22.5 -54.5s33.167 -22.5 54.5 -22.5h179v-588c0 -7.33301 -2.5 -13.5 -7.5 -18.5s-10.833 -7.5 -17.5 -7.5v0zM589 307h-128v128c0 7.33301 -2.5 13.5 -7.5 18.5s-11.167 7.5 -18.5 7.5
c-6.66699 0 -12.5 -2.5 -17.5 -7.5s-7.5 -11.167 -7.5 -18.5v-128h-128c-7.33301 0 -13.5 -2.5 -18.5 -7.5s-7.5 -10.833 -7.5 -17.5c0 -7.33301 2.5 -13.5 7.5 -18.5s11.167 -7.5 18.5 -7.5h128v-128c0 -7.33301 2.5 -13.5 7.5 -18.5s10.833 -7.5 17.5 -7.5
c7.33301 0 13.5 2.5 18.5 7.5s7.5 11.167 7.5 18.5v128h128c6.66699 0 12.5 2.5 17.5 7.5s7.5 11.167 7.5 18.5c0 6.66699 -2.5 12.5 -7.5 17.5s-10.833 7.5 -17.5 7.5v0z" />
    <glyph glyph-name="uniE81F" unicode="&#xe81f;" 
d="M896 870l-461 -0.000976562c-21.333 0 -39.5 -7.5 -54.5 -22.5s-22.5 -32.833 -22.5 -53.5v-154c0 -7.33301 2.5 -13.5 7.5 -18.5s11.167 -7.5 18.5 -7.5s13.5 2.5 18.5 7.5s7.5 11.167 7.5 18.5v154c0 6.66699 2.5 12.5 7.5 17.5s10.833 7.5 17.5 7.5h387l-196 -84
c-18 -7.33301 -33 -20.166 -45 -38.499s-18 -37.166 -18 -56.499v-486h-128c-6.66699 0 -12.5 2.5 -17.5 7.5s-7.5 10.833 -7.5 17.5v154c0 6.66699 -2.5 12.5 -7.5 17.5s-11.167 7.5 -18.5 7.5s-13.5 -2.5 -18.5 -7.5s-7.5 -10.833 -7.5 -17.5v-154
c0 -21.333 7.5 -39.5 22.5 -54.5s33.167 -22.5 54.5 -22.5h128v-76c0 -11.333 2.16699 -21.5 6.5 -30.5s10.833 -16.167 19.5 -21.5c4 -2.66699 8.66699 -4.83398 14 -6.50098s10.666 -2.5 15.999 -2.5c4 0 8.33301 0.5 13 1.5s9.33398 2.5 14.001 4.5l264 113
c18 8 33 21.167 45 39.5s18 36.833 18 55.5v615c0 20.667 -7.5 38.5 -22.5 53.5s-33.167 22.5 -54.5 22.5v0zM922 178.999c0 -8.66699 -3.33203 -17.835 -9.99902 -27.502s-14 -16.5 -22 -20.5l-264 -113c-2.66699 -0.666992 -4.83398 -1.16699 -6.50098 -1.5
s-2.5 -0.166016 -2.5 0.500977c-0.666992 0 -1.33398 0.833008 -2.00098 2.5s-1 3.83398 -1 6.50098v614c0 8.66699 3.33301 18 10 28s14 16.667 22 20l273 117c0.666992 -2 1.33398 -3.83301 2.00098 -5.5s1 -3.5 1 -5.5v-615v0zM428.001 504.998l-154 153
c-4.66699 5.33301 -10.667 8 -18 8s-13.333 -2.66699 -18 -8c-5.33301 -4.66699 -8 -10.667 -8 -18s2.66699 -13.333 8 -18l110 -110h-322c-7.33301 0 -13.5 -2.5 -18.5 -7.5s-7.5 -11.167 -7.5 -18.5c0 -6.66699 2.5 -12.5 7.5 -17.5s11.167 -7.5 18.5 -7.5h322l-110 -110
c-5.33301 -5.33301 -8 -11.5 -8 -18.5s2.66699 -12.833 8 -17.5c2.66699 -2.66699 5.5 -4.66699 8.5 -6s6.16699 -2 9.5 -2s6.5 0.666992 9.5 2s5.83301 3.33301 8.5 6l154 153c4.66699 5.33301 7 11.5 7 18.5s-2.33301 13.167 -7 18.5v0z" />
    <glyph glyph-name="uniE820" unicode="&#xe820;" 
d="M589 563c6.66699 0 12.5 2.50098 17.5 7.50098s7.5 11.167 7.5 18.5v205c0 20.667 -7.5 38.5 -22.5 53.5s-32.833 22.5 -53.5 22.5h-461c-21.333 0 -39.5 -7.5 -54.5 -22.5s-22.5 -32.833 -22.5 -53.5v-615c0 -18.667 6 -37.167 18 -55.5s27 -31.5 45 -39.5l264 -113
c4.66699 -2 9.16699 -3.5 13.5 -4.5s8.83301 -1.5 13.5 -1.5c5.33301 0 10.666 0.833008 15.999 2.5s10 3.83398 14 6.50098c8 5.33301 14.333 12.5 19 21.5s7 19.167 7 30.5v76h128c20.667 0 38.5 7.5 53.5 22.5s22.5 33.167 22.5 54.5v205c0 7.33301 -2.5 13.5 -7.5 18.5
s-10.833 7.5 -17.5 7.5c-7.33301 0 -13.5 -2.5 -18.5 -7.5s-7.5 -11.167 -7.5 -18.5v-205c0 -6.66699 -2.5 -12.5 -7.5 -17.5s-10.833 -7.5 -17.5 -7.5h-128v486c0 19.333 -6.16699 38.166 -18.5 56.499s-27.166 31.166 -44.499 38.499l-197 84h388
c6.66699 0 12.5 -2.5 17.5 -7.5s7.5 -10.833 7.5 -17.5v-205c0 -7.33301 2.5 -13.5 7.5 -18.5s11.167 -7.5 18.5 -7.5v0zM327 688.001c8 -3.33301 15.166 -9.99902 21.499 -19.999s9.5 -19.333 9.5 -28v-614c0 -2.66699 -0.166992 -4.83398 -0.5 -6.50098
s-0.833008 -2.5 -1.5 -2.5c-0.666992 -0.666992 -1.66699 -0.833984 -3 -0.500977l-6 1.5l-264 113c-8.66699 4 -16.167 10.833 -22.5 20.5s-9.5 18.834 -9.5 27.501v615c0 2 0.333008 3.83301 1 5.5s1.33398 3.5 2.00098 5.5l273 -117v0zM939.999 505.002l-154 153
c-4.66699 5.33301 -10.667 8 -18 8s-13.333 -2.66699 -18 -8c-5.33301 -4.66699 -8 -10.667 -8 -18s2.66699 -13.333 8 -18l110 -110h-322c-7.33301 0 -13.5 -2.5 -18.5 -7.5s-7.5 -11.167 -7.5 -18.5c0 -6.66699 2.5 -12.5 7.5 -17.5s11.167 -7.5 18.5 -7.5h322l-110 -110
c-5.33301 -5.33301 -8 -11.5 -8 -18.5s2.66699 -12.833 8 -17.5c2.66699 -2.66699 5.5 -4.66699 8.5 -6s6.16699 -2 9.5 -2s6.5 0.666992 9.5 2s5.83301 3.33301 8.5 6l154 153c4.66699 5.33301 7 11.5 7 18.5s-2.33301 13.167 -7 18.5v0z" />
    <glyph glyph-name="uniE821" unicode="&#xe821;" 
d="M955 613l-460.998 154c-2 0.666992 -4.5 1 -7.5 1s-5.83301 -0.333008 -8.5 -1l-460 -154c-5.33301 -2 -9.66602 -5.16699 -12.999 -9.5s-5 -9.16602 -5 -14.499s1.66699 -10.333 5 -15s7.66602 -7.66699 12.999 -9l136 -46v-135c0 -3.33301 0.5 -6.66602 1.5 -9.99902
s2.83301 -6 5.5 -8c1.33301 -1.33301 9 -7.83301 23 -19.5s34.5 -24.167 61.5 -37.5s60.667 -25.5 101 -36.5s86.833 -16.5 139.5 -16.5c38.667 0 76 3.5 112 10.5s70.333 17.167 103 30.5c6.66699 3.33301 11.334 8.16602 14.001 14.499s2.66699 12.833 0 19.5
s-7.33398 11.334 -14.001 14.001s-13.334 2.66699 -20.001 0c-29.333 -12.667 -60.333 -22.167 -93 -28.5s-66.667 -9.5 -102 -9.5c-49.333 0 -92.166 5.16699 -128.499 15.5s-65.5 21.166 -87.5 32.499c-16.667 8 -30.334 15.667 -41.001 23s-18.667 13.333 -24 18v106
l273 -91c1.33301 -0.666992 2.66602 -1 3.99902 -1h4h4.5c1.66699 0 2.83398 0.333008 3.50098 1l274 91v-46c-14.667 -5.33301 -26.834 -14.5 -36.501 -27.5s-14.5 -27.833 -14.5 -44.5c0 -15.333 4.16699 -29.333 12.5 -42s19.166 -22 32.499 -28l-44 -180
c-1.33301 -4 -1.5 -7.83301 -0.5 -11.5s2.5 -7.16699 4.5 -10.5c2.66699 -2.66699 5.66699 -5 9 -7s7 -3 11 -3h103c4 0 7.66699 1 11 3s6.33301 4.33301 9 7c2.66699 3.33301 4.33398 6.83301 5.00098 10.5s0.666992 7.5 0 11.5l-45 180c13.333 6 24.166 15.333 32.499 28
s12.5 26.667 12.5 42c0 16.667 -4.66699 31.5 -14 44.5s-21.666 22.167 -36.999 27.5v63l136 46c5.33301 1.33301 9.66602 4.33301 12.999 9s5 9.66699 5 15s-1.66699 10.166 -5 14.499s-7.66602 7.5 -12.999 9.5v0zM794.002 410c6.66699 0 12.5 -2.5 17.5 -7.5
s7.5 -11.167 7.5 -18.5s-2.5 -13.5 -7.5 -18.5s-10.833 -7.5 -17.5 -7.5c-7.33301 0 -13.5 2.5 -18.5 7.5s-7.5 11.167 -7.5 18.5s2.5 13.5 7.5 18.5s11.167 7.5 18.5 7.5v0zM775.002 154l19 73l18 -73h-37v0zM792.002 564l-301 50
c-7.33301 1.33301 -13.833 -0.166992 -19.5 -4.5s-9.16699 -9.83301 -10.5 -16.5s0.166992 -13 4.5 -19s9.83301 -9.33301 16.5 -10l206 -35l-202 -67l-379 127l379 126l380 -126l-74 -25v0z" />
    <glyph glyph-name="uniE822" unicode="&#xe822;" 
d="M947 51h-870c-21.333 0 -39.5 7.5 -54.5 22.5s-22.5 33.167 -22.5 54.5v666c0 20.667 7.5 38.5 22.5 53.5s33.167 22.5 54.5 22.5h870c21.333 0 39.5 -7.5 54.5 -22.5s22.5 -32.833 22.5 -53.5v-666c0 -21.333 -7.5 -39.5 -22.5 -54.5s-33.167 -22.5 -54.5 -22.5v0z
M77 819c-7.33301 0 -13.5 -2.5 -18.5 -7.5s-7.5 -10.833 -7.5 -17.5v-666c0 -7.33301 2.5 -13.5 7.5 -18.5s11.167 -7.5 18.5 -7.5h870c7.33301 0 13.5 2.5 18.5 7.5s7.5 11.167 7.5 18.5v666c0 6.66699 -2.5 12.5 -7.5 17.5s-11.167 7.5 -18.5 7.5h-870v0zM486 666h-307
c-6.66699 0 -12.5 2.5 -17.5 7.5s-7.5 10.833 -7.5 17.5c0 7.33301 2.5 13.5 7.5 18.5s10.833 7.5 17.5 7.5h307c7.33301 0 13.5 -2.5 18.5 -7.5s7.5 -11.167 7.5 -18.5c0 -6.66699 -2.5 -12.5 -7.5 -17.5s-11.167 -7.5 -18.5 -7.5v0zM486 512h-307
c-6.66699 0 -12.5 2.5 -17.5 7.5s-7.5 11.167 -7.5 18.5c0 6.66699 2.5 12.5 7.5 17.5s10.833 7.5 17.5 7.5h307c7.33301 0 13.5 -2.5 18.5 -7.5s7.5 -10.833 7.5 -17.5c0 -7.33301 -2.5 -13.5 -7.5 -18.5s-11.167 -7.5 -18.5 -7.5v0zM486 410h-307
c-6.66699 0 -12.5 2.5 -17.5 7.5s-7.5 10.833 -7.5 17.5c0 7.33301 2.5 13.5 7.5 18.5s10.833 7.5 17.5 7.5h307c7.33301 0 13.5 -2.5 18.5 -7.5s7.5 -11.167 7.5 -18.5c0 -6.66699 -2.5 -12.5 -7.5 -17.5s-11.167 -7.5 -18.5 -7.5v0zM486 307h-307
c-6.66699 0 -12.5 2.5 -17.5 7.5s-7.5 11.167 -7.5 18.5c0 6.66699 2.5 12.5 7.5 17.5s10.833 7.5 17.5 7.5h307c7.33301 0 13.5 -2.5 18.5 -7.5s7.5 -10.833 7.5 -17.5c0 -7.33301 -2.5 -13.5 -7.5 -18.5s-11.167 -7.5 -18.5 -7.5v0zM435 205h-256
c-6.66699 0 -12.5 2.5 -17.5 7.5s-7.5 10.833 -7.5 17.5c0 7.33301 2.5 13.5 7.5 18.5s10.833 7.5 17.5 7.5h256c7.33301 0 13.5 -2.5 18.5 -7.5s7.5 -11.167 7.5 -18.5c0 -6.66699 -2.5 -12.5 -7.5 -17.5s-11.167 -7.5 -18.5 -7.5v0zM919 638l-42.001 30l-16 49h-51l-42 30
l-42 -30h-51l-16 -49l-42 -30l16 -49l-16 -49l42 -30l7 -21v-1.5v-1.5v-256c0 -4.66699 1.33301 -9.16699 4 -13.5s6.33398 -7.5 11.001 -9.5c5.33301 -2 10.5 -2.5 15.5 -1.5s9.16699 3.16699 12.5 6.5l59 59l59 -59c2 -2 4.66699 -3.66699 8 -5s6.66602 -2 9.99902 -2
c1.33301 0 2.83301 0.166992 4.5 0.5s3.5 0.833008 5.5 1.5c4.66699 2 8.33398 5.16699 11.001 9.5s4 8.83301 4 13.5v256v1.5v1.5l7 21l42 30l-16 49l16 49v0zM677.999 618l25 18l9 30h31l25 18l25 -18h31l9 -30l25 -18l-9 -29l9 -30l-25 -18l-9 -29h-31l-25 -18l-25 18
h-31l-9 29l-25 18l9 30l-9 29v0zM785.999 325c-4.66699 5.33301 -10.667 8 -18 8s-13.333 -2.66699 -18 -8l-33 -33v169h9l42 -31l42 31h9v-169l-33 33v0z" />
    <glyph glyph-name="uniE823" unicode="&#xe823;" 
d="M1015 916c-3.33301 2 -6.83105 3.49902 -10.498 4.49902s-7.16699 1.16699 -10.5 0.5l-563 -102c-6.66699 -1.33301 -11.834 -4.33301 -15.501 -9s-5.5 -10 -5.5 -16v-584c-4 2.66699 -7.83301 5 -11.5 7l-11.5 6c-21.333 10.667 -45.5 18.834 -72.5 24.501
s-55.167 8.5 -84.5 8.5s-57.333 -2.83301 -84 -8.5s-50.667 -13.834 -72 -24.501c-24 -12 -42.333 -26.167 -55 -42.5s-19 -33.833 -19 -52.5s6.33301 -36.167 19 -52.5s31 -30.5 55 -42.5c21.333 -10.667 45.333 -18.834 72 -24.501s54.667 -8.5 84 -8.5
s57.5 2.83301 84.5 8.5s51.167 13.834 72.5 24.501c24 12 42.333 26.167 55 42.5s19 33.833 19 52.5v516l512 95v-427c-3.33301 2.66699 -7 5.16699 -11 7.5s-8 4.5 -12 6.5c-21.333 10.667 -45.333 18.667 -72 24s-54.667 8 -84 8s-57.5 -2.66699 -84.5 -8
s-51.167 -13.333 -72.5 -24c-24 -12 -42.333 -26.167 -55 -42.5s-19 -34.166 -19 -53.499c0 -18.667 6.33301 -36.167 19 -52.5s31 -30.5 55 -42.5c21.333 -10.667 45.5 -18.834 72.5 -24.501s55.167 -8.5 84.5 -8.5s57.333 2.83301 84 8.5s50.667 13.834 72 24.501
c24 12 42.333 26.167 55 42.5s19 33.833 19 52.5v666c0 4 -0.833008 7.66699 -2.5 11s-3.83398 6.33301 -6.50098 9v0zM230.002 50.999c-51.333 0 -94 8.33301 -128 25s-51 34 -51 52s17 35.333 51 52s76.667 25 128 25s94.166 -8.33301 128.499 -25s51.5 -34 51.5 -52
s-17.167 -35.333 -51.5 -52s-77.166 -25 -128.499 -25v0zM461.002 695.999v76l512 93v-74l-512 -95v0zM794.002 153.999c-51.333 0 -94.166 8.16699 -128.499 24.5s-51.5 33.5 -51.5 51.5c0 18.667 17.167 36.167 51.5 52.5s77.166 24.5 128.499 24.5s94 -8.16699 128 -24.5
s51 -33.833 51 -52.5c0 -18 -17 -35.167 -51 -51.5s-76.667 -24.5 -128 -24.5v0z" />
    <glyph glyph-name="uniE824" unicode="&#xe824;" 
d="M384 205c-2 0 -3.99902 0.168945 -5.99902 0.501953s-3.66699 1.16602 -5 2.49902c-4.66699 2 -8.33398 5 -11.001 9s-4 8.33301 -4 13v461c0 4.66699 1.33301 9.16699 4 13.5s6.33398 7.5 11.001 9.5c4 2 8.5 2.83301 13.5 2.5s9.16699 -1.83301 12.5 -4.5l308 -231
c2.66699 -2 5 -4.83301 7 -8.5s3 -7.5 3 -11.5s-1 -7.83301 -3 -11.5s-4.33301 -6.83398 -7 -9.50098l-308 -230c-2 -2 -4.33301 -3.33301 -7 -4s-5.33398 -1 -8.00098 -1v0zM410.001 640.002v-358l239 179l-239 179v0zM998.001 870.002h-972
c-7.33301 0 -13.5 -2.5 -18.5 -7.5s-7.5 -10.833 -7.5 -17.5v-768c0 -7.33301 2.5 -13.5 7.5 -18.5s11.167 -7.5 18.5 -7.5h972c7.33301 0 13.5 2.5 18.5 7.5s7.5 11.167 7.5 18.5v768c0 6.66699 -2.5 12.5 -7.5 17.5s-11.167 7.5 -18.5 7.5v0zM154.001 410.002h-103v102
h103v-102v0zM154.001 563.002h-103v103h103v-103v0zM51.001 358.002h103v-102h-103v102v0zM205.001 819.002h614v-717h-614v717v0zM870.001 512.002h103v-102h-103v102v0zM870.001 563.002v103h103v-103h-103v0zM870.001 358.002h103v-102h-103v102v0zM973.001 717.002h-103
v102h103v-102v0zM154.001 819.002v-102h-103v102h103v0zM51.001 205.002h103v-103h-103v103v0zM870.001 102.002v103h103v-103h-103v0z" />
    <glyph glyph-name="uniE825" unicode="&#xe825;" 
d="M979 100h0.000976562c-6 0 -12 1.16699 -18 3.5s-12.333 5.83301 -19 10.5l-176 141c-14 11.333 -25.667 26.833 -35 46.5s-14 38.5 -14 56.5v154c0 18 4.66699 36.833 14 56.5s21 35.167 35 46.5l176 141c6.66699 4.66699 13 8.33398 19 11.001s12 4 18 4
c11.333 0 21.666 -4.33301 30.999 -13s14 -22.334 14 -41.001v-563c0 -7.33301 -0.833008 -14 -2.5 -20s-4.16699 -11.333 -7.5 -16c-4 -6 -9 -10.5 -15 -13.5s-12.667 -4.5 -20 -4.5v0zM973.001 715l-175 -139.999c-8 -6 -15 -15.5 -21 -28.5s-9 -24.5 -9 -34.5v-154
c0 -10 3 -21.333 9 -34s13 -22.334 21 -29.001l175 -139v559v0zM589.001 102.001h-512c-21.333 0 -39.5 7.5 -54.5 22.5s-22.5 33.167 -22.5 54.5v512c0 21.333 7.5 39.5 22.5 54.5s33.167 22.5 54.5 22.5h512c21.333 0 39.5 -7.5 54.5 -22.5s22.5 -33.167 22.5 -54.5v-512
c0 -21.333 -7.5 -39.5 -22.5 -54.5s-33.167 -22.5 -54.5 -22.5v0zM77.001 717.001c-7.33301 0 -13.5 -2.5 -18.5 -7.5s-7.5 -11.167 -7.5 -18.5v-512c0 -6.66699 2.5 -12.5 7.5 -17.5s11.167 -7.5 18.5 -7.5h512c6.66699 0 12.5 2.5 17.5 7.5s7.5 10.833 7.5 17.5v512
c0 7.33301 -2.5 13.5 -7.5 18.5s-10.833 7.5 -17.5 7.5h-512v0z" />
    <glyph glyph-name="uniE826" unicode="&#xe826;" 
d="M486 205c-31.333 0 -61 6 -89 18s-52.5 28.5 -73.5 49.5s-37.5 45.5 -49.5 73.5s-18 57.667 -18 89c0 32 6 62 18 90s28.5 52.333 49.5 73s45.5 37.167 73.5 49.5s57.667 18.5 89 18.5c32 0 62 -6.16699 90 -18.5s52.5 -28.833 73.5 -49.5s37.5 -45 49.5 -73
s18 -58 18 -90c0 -31.333 -6 -61 -18 -89s-28.5 -52.5 -49.5 -73.5s-45.5 -37.5 -73.5 -49.5s-58 -18 -90 -18v0zM486 614c-49.333 0 -91.5 -17.5 -126.5 -52.5s-52.5 -77.167 -52.5 -126.5s17.5 -91.5 52.5 -126.5s77.167 -52.5 126.5 -52.5c50 0 92.5 17.5 127.5 52.5
s52.5 77.167 52.5 126.5s-17.5 91.5 -52.5 126.5s-77.5 52.5 -127.5 52.5v0zM896 51h-819c-21.333 0 -39.5 7.5 -54.5 22.5s-22.5 33.167 -22.5 54.5v512c0 21.333 7.5 39.5 22.5 54.5s33.167 22.5 54.5 22.5h77c10.667 0 23 2.83301 37 8.5s24.667 12.5 32 20.5l30 29
c12.667 12.667 29 23.167 49 31.5s38.667 12.5 56 12.5h256c18 0 37 -4.16699 57 -12.5s36.333 -18.833 49 -31.5l30 -29c7.33301 -8 18 -14.833 32 -20.5s26.333 -8.5 37 -8.5h77c21.333 0 39.5 -7.5 54.5 -22.5s22.5 -33.167 22.5 -54.5v-512
c0 -21.333 -7.5 -39.5 -22.5 -54.5s-33.167 -22.5 -54.5 -22.5v0zM77 666c-7.33301 0 -13.501 -2.5 -18.501 -7.5s-7.5 -11.167 -7.5 -18.5v-512c0 -7.33301 2.5 -13.5 7.5 -18.5s11.167 -7.5 18.5 -7.5h819c7.33301 0 13.5 2.5 18.5 7.5s7.5 11.167 7.5 18.5v512
c0 7.33301 -2.5 13.5 -7.5 18.5s-11.167 7.5 -18.5 7.5h-77c-17.333 0 -36.166 4.16699 -56.499 12.5s-36.5 18.5 -48.5 30.5l-30 30c-8 8 -19 14.833 -33 20.5s-26.333 8.5 -37 8.5h-256c-10.667 0 -23 -2.83301 -37 -8.5s-24.667 -12.5 -32 -20.5l-30 -30
c-12.667 -12 -29 -22.167 -49 -30.5s-38.667 -12.5 -56 -12.5h-77v0z" />
    <glyph glyph-name="uniE827" unicode="&#xe827;" 
d="M947 -51h-870c-21.333 0 -39.5 7.5 -54.5 22.5s-22.5 33.167 -22.5 54.5v870c0 21.333 7.5 39.5 22.5 54.5s33.167 22.5 54.5 22.5h870c21.333 0 39.5 -7.5 54.5 -22.5s22.5 -33.167 22.5 -54.5v-870c0 -21.333 -7.5 -39.5 -22.5 -54.5s-33.167 -22.5 -54.5 -22.5v0z
M77 922c-7.33301 0 -13.5 -2.5 -18.5 -7.5s-7.5 -11.167 -7.5 -18.5v-870c0 -7.33301 2.5 -13.5 7.5 -18.5s11.167 -7.5 18.5 -7.5h870c7.33301 0 13.5 2.5 18.5 7.5s7.5 11.167 7.5 18.5v870c0 7.33301 -2.5 13.5 -7.5 18.5s-11.167 7.5 -18.5 7.5h-870v0zM666 512
c-28.667 0 -53 10 -73 30s-30 44 -30 72c0 28.667 10 53 30 73s44.333 30 73 30c28 0 52 -10 72 -30s30 -44.333 30 -73c0 -28 -10 -52 -30 -72s-44 -30 -72 -30v0zM666 666c-14.667 0 -27 -5 -37 -15s-15 -22.333 -15 -37c0 -14 5 -26 15 -36s22.333 -15 37 -15
c14 0 26 5 36 15s15 22 15 36c0 14.667 -5 27 -15 37s-22 15 -36 15v0zM896 870h-768c-7.33301 0 -13.5 -2.5 -18.5 -7.5s-7.5 -10.833 -7.5 -17.5v-615c0 -6.66699 2.5 -12.5 7.5 -17.5s11.167 -7.5 18.5 -7.5h768c7.33301 0 13.5 2.5 18.5 7.5s7.5 10.833 7.5 17.5v615
c0 6.66699 -2.5 12.5 -7.5 17.5s-11.167 7.5 -18.5 7.5v0zM154 374l163.999 185c2 2.66699 4.33301 4.66699 7 6s5.33398 2 8.00098 2c3.33301 0 6.33301 -0.666992 9 -2s5 -3 7 -5l283 -304h-478v118v0zM869.999 256h-168l-316 338c-6.66699 8 -14.667 14 -24 18
s-19 6 -29 6c-10.667 0 -20.5 -2.16699 -29.5 -6.5s-16.833 -10.5 -23.5 -18.5l-126 -142v368h716v-563v0z" />
    <glyph glyph-name="uniE828" unicode="&#xe828;" 
d="M742 51h-512c-6.66699 0 -12.5 2.5 -17.5 7.5s-7.5 11.167 -7.5 18.5c0 6.66699 2.5 12.5 7.5 17.5s10.833 7.5 17.5 7.5h512c7.33301 0 13.5 -2.5 18.5 -7.5s7.5 -10.833 7.5 -17.5c0 -7.33301 -2.5 -13.5 -7.5 -18.5s-11.167 -7.5 -18.5 -7.5v0zM845 819
c-7.33301 0 -13.5 -2.5 -18.5 -7.5s-7.5 -10.833 -7.5 -17.5v-768c0 -7.33301 -2.5 -13.5 -7.5 -18.5s-10.833 -7.5 -17.5 -7.5h-564c-20.667 0 -38.5 7.5 -53.5 22.5s-22.5 33.167 -22.5 54.5s7.5 39.5 22.5 54.5s32.833 22.5 53.5 22.5h461c21.333 0 39.5 7.5 54.5 22.5
s22.5 32.833 22.5 53.5v615c0 21.333 -7.5 39.5 -22.5 54.5s-33.167 22.5 -54.5 22.5h-512c-21.333 0 -39.5 -7.5 -54.5 -22.5s-22.5 -33.167 -22.5 -54.5v-768c0 -35.333 12.5 -65.5 37.5 -90.5s55.167 -37.5 90.5 -37.5h564c20.667 0 38.5 7.5 53.5 22.5
s22.5 33.167 22.5 54.5v768c0 6.66699 -2.5 12.5 -7.5 17.5s-10.833 7.5 -17.5 7.5v0zM179 870h512c7.33301 0 13.5 -2.5 18.5 -7.5s7.5 -10.833 7.5 -17.5v-615c0 -6.66699 -2.5 -12.5 -7.5 -17.5s-11.167 -7.5 -18.5 -7.5h-461c-14 0 -27.5 -2.33301 -40.5 -7
s-24.833 -11 -35.5 -19v666c0 6.66699 2.5 12.5 7.5 17.5s10.833 7.5 17.5 7.5v0z" />
    <glyph glyph-name="uniE829" unicode="&#xe829;" 
d="M794 -51c-4 0 -7.66895 0.667969 -11.002 2.00098s-6.33301 3.66602 -9 6.99902l-288 335l-287 -335c-4 -4 -8.5 -6.66699 -13.5 -8s-10.167 -1.33301 -15.5 0c-4.66699 2 -8.5 5.16699 -11.5 9.5s-4.5 9.16602 -4.5 14.499v922c0 7.33301 2.5 13.5 7.5 18.5
s10.833 7.5 17.5 7.5h615c6.66699 0 12.5 -2.5 17.5 -7.5s7.5 -11.167 7.5 -18.5v-922c0 -5.33301 -1.5 -10.166 -4.5 -14.499s-7.16699 -7.5 -12.5 -9.5c-1.33301 0 -2.66602 -0.166992 -3.99902 -0.5s-2.66602 -0.5 -3.99902 -0.5v0zM485.998 358.001
c4 0 7.66797 -0.666992 11.001 -2s6.33301 -3.66602 9 -6.99902l262 -305v826h-563v-826l262 305c2.66699 3.33301 5.66699 5.66602 9 6.99902s6.66602 2 9.99902 2v0z" />
    <glyph glyph-name="uniE82A" unicode="&#xe82a;" 
d="M486 410c-38.667 0 -75 7.33301 -109 22s-63.833 34.667 -89.5 60s-45.834 55.166 -60.501 89.499s-22 70.833 -22 109.5s7.33301 75.167 22 109.5s34.834 64.166 60.501 89.499s55.5 45.5 89.5 60.5s70.333 22.5 109 22.5c39.333 0 76 -7.5 110 -22.5
s63.833 -35.167 89.5 -60.5s45.834 -55.166 60.501 -89.499s22 -70.833 22 -109.5s-7.33301 -75.167 -22 -109.5s-34.834 -64.166 -60.501 -89.499s-55.5 -45.333 -89.5 -60s-70.667 -22 -110 -22v0zM486 922c-31.333 0 -61 -6.16699 -89 -18.5s-52.5 -28.833 -73.5 -49.5
s-37.5 -45 -49.5 -73s-18 -58 -18 -90c0 -31.333 6 -61 18 -89s28.5 -52.5 49.5 -73.5s45.5 -37.5 73.5 -49.5s57.667 -18 89 -18c32 0 62 6 90 18s52.5 28.5 73.5 49.5s37.5 45.5 49.5 73.5s18 57.667 18 89c0 32 -6 62 -18 90s-28.5 52.333 -49.5 73
s-45.5 37.167 -73.5 49.5s-58 18.5 -90 18.5v0zM896 -51h-818.998c-21.333 0 -39.5 7.5 -54.5 22.5s-22.5 33.167 -22.5 54.5c0 1.33301 2.66699 19.5 8 54.5s23.666 73.167 54.999 114.5c18 24 39.333 45.5 64 64.5s52.334 35.167 83.001 48.5
c37.333 16.667 79.166 29.167 125.499 37.5s96.5 12.5 150.5 12.5c54.667 0 105.167 -4.16699 151.5 -12.5s88.166 -20.833 125.499 -37.5c30.667 -13.333 58.334 -29.5 83.001 -48.5s46 -40.5 64 -64.5c31.333 -41.333 49.666 -79.5 54.999 -114.5s8 -53.167 8 -54.5
c0 -21.333 -7.5 -39.5 -22.5 -54.5s-33.167 -22.5 -54.5 -22.5v0zM486.002 307c-44.667 0 -86.168 -3 -124.501 -9s-73.666 -15 -105.999 -27s-61 -26.667 -86 -44s-46.5 -37.666 -64.5 -60.999c-26 -34.667 -41.5 -66.667 -46.5 -96s-7.5 -44.333 -7.5 -45
c0 -6.66699 2.5 -12.5 7.5 -17.5s11.167 -7.5 18.5 -7.5h819c7.33301 0 13.5 2.5 18.5 7.5s7.5 11.167 7.5 18.5l-7.5 44c-5 29.333 -20.833 61.333 -47.5 96c-17.333 23.333 -38.666 43.666 -63.999 60.999s-54 32 -86 44s-67.333 21 -106 27s-80.334 9 -125.001 9v0z" />
    <glyph glyph-name="uniE82B" unicode="&#xe82b;" 
d="M947 51h-562.999c-21.333 0 -39.5 7.5 -54.5 22.5s-22.5 33.167 -22.5 54.5c0 1.33301 2 14.166 6 38.499s18 51.166 42 80.499c13.333 16 29 30.667 47 44s38.333 24.333 61 33c28 11.333 58.833 19.833 92.5 25.5s70.5 8.5 110.5 8.5c39.333 0 76 -2.83301 110 -8.5
s64.667 -14.167 92 -25.5c22.667 -8.66699 43.167 -19.667 61.5 -33s34.166 -28 47.499 -44c23.333 -29.333 37 -56.166 41 -80.499s6 -37.166 6 -38.499c0 -21.333 -7.5 -39.5 -22.5 -54.5s-33.167 -22.5 -54.5 -22.5v0zM358.001 128c0 -7.33301 2.5 -13.5 7.5 -18.5
s11.167 -7.5 18.5 -7.5h563c7.33301 0 13.5 2.5 18.5 7.5s7.5 11.167 7.5 18.5c0 0.666992 -1.83301 10.167 -5.5 28.5s-14.5 38.5 -32.5 60.5c-24.667 29.333 -60 51.666 -106 66.999s-100.333 23 -163 23c-63.333 0 -117.833 -7.66699 -163.5 -23
s-81.167 -37.666 -106.5 -66.999c-18 -22 -28.833 -42.167 -32.5 -60.5s-5.5 -27.833 -5.5 -28.5v0zM666.001 410c-28.667 0 -55.334 5.33301 -80.001 16s-46.334 25.167 -65.001 43.5s-33.334 40 -44.001 65s-16 51.5 -16 79.5c0 28.667 5.33301 55.334 16 80.001
s25.334 46.334 44.001 65.001s40.334 33.334 65.001 44.001s51.334 16 80.001 16c28 0 54.5 -5.33301 79.5 -16s46.667 -25.334 65 -44.001s32.833 -40.334 43.5 -65.001s16 -51.334 16 -80.001c0 -28 -5.33301 -54.5 -16 -79.5s-25.167 -46.667 -43.5 -65
s-40 -32.833 -65 -43.5s-51.5 -16 -79.5 -16v0zM666.001 768c-42.667 0 -79 -15 -109 -45s-45 -66.333 -45 -109c0 -42 15 -78 45 -108s66.333 -45 109 -45c42 0 78 15 108 45s45 66 45 108c0 42.667 -15 79 -45 109s-66 45 -108 45v0zM230.001 51h-153
c-21.333 0 -39.5 7.5 -54.5 22.5s-22.5 33.167 -22.5 54.5c0 0.666992 1.5 10.667 4.5 30s12.833 40 29.5 62c9.33301 13.333 20.666 25 33.999 35s28 18.667 44 26c20 8.66699 42 15.167 66 19.5s50 6.5 78 6.5h13.5c4.33301 0 8.83301 -0.333008 13.5 -1
c7.33301 0 13.333 -2.66699 18 -8s6.66699 -11.333 6 -18c0 -7.33301 -2.66699 -13.333 -8 -18s-11.666 -7 -18.999 -7c-4 0.666992 -8 1 -12 1h-12c-100 0 -159.167 -20.5 -177.5 -61.5s-27.5 -63.167 -27.5 -66.5c0 -7.33301 2.5 -13.5 7.5 -18.5s11.167 -7.5 18.5 -7.5
h153c7.33301 0 13.5 -2.5 18.5 -7.5s7.5 -10.833 7.5 -17.5c0 -7.33301 -2.5 -13.5 -7.5 -18.5s-11.167 -7.5 -18.5 -7.5v0zM256.001 358c-42.667 0 -79 15 -109 45s-45 66.333 -45 109s15 79 45 109s66.333 45 109 45s79 -15 109 -45s45 -66.333 45 -109s-15 -79 -45 -109
s-66.333 -45 -109 -45v0zM256.001 614c-28 0 -52 -10 -72 -30s-30 -44 -30 -72s10 -52 30 -72s44 -30 72 -30s52 10 72 30s30 44 30 72s-10 52 -30 72s-44 30 -72 30v0z" />
    <glyph glyph-name="uniE82C" unicode="&#xe82c;" 
d="M691 0h-408.999c-21.333 0 -39.5 7.5 -54.5 22.5s-22.5 33.167 -22.5 54.5v476l-120 -40c-6.66699 -2 -13.167 -1.5 -19.5 1.5s-10.5 8.16699 -12.5 15.5l-52 153c-2 6 -1.66699 12 1 18s6.66699 10.333 12 13l307 154c4 2 8.33301 2.83301 13 2.5s8.66699 -1.5 12 -3.5
c4 -2.66699 7 -6 9 -10s3 -8 3 -12c0 -35.333 12.5 -65.5 37.5 -90.5s55.167 -37.5 90.5 -37.5s65.5 12.5 90.5 37.5s37.5 55.167 37.5 90.5c0 4 1.16699 8 3.5 12s5.5 7.33301 9.5 10c3.33301 2 7.16602 3.16699 11.499 3.5s8.5 -0.5 12.5 -2.5l308 -154
c5.33301 -2.66699 9.33301 -7 12 -13s2.66699 -12 0 -18l-51 -153c-2 -7.33301 -6.16699 -12.5 -12.5 -15.5s-12.833 -3.5 -19.5 -1.5l-120 40v-476c0 -21.333 -7.5 -39.5 -22.5 -54.5s-33.167 -22.5 -54.5 -22.5v0zM230.001 614
c2.66699 0 5.33789 -0.333984 8.00488 -1.00098s5 -1.66699 7 -3c3.33301 -2.66699 6 -5.83398 8 -9.50098s3 -7.5 3 -11.5v-512c0 -7.33301 2.5 -13.5 7.5 -18.5s11.167 -7.5 18.5 -7.5h409c7.33301 0 13.5 2.5 18.5 7.5s7.5 11.167 7.5 18.5v512
c0 4 0.833008 7.83301 2.5 11.5s4.16699 6.83398 7.5 9.50098c3.33301 2 7.16602 3.33301 11.499 4s8.16602 0.333984 11.499 -0.999023l130 -43l36 108l-255 128c-8.66699 -40 -29.334 -73.333 -62.001 -100s-70.334 -40 -113.001 -40s-80.167 13.333 -112.5 40
s-52.833 60 -61.5 100l-255 -128l36 -108l129 43c1.33301 0.666992 2.66602 1 3.99902 1h4v0z" />
    <glyph glyph-name="uniE82D" unicode="&#xe82d;" 
d="M922 486l0.00292969 52c0 2 -0.333008 3.83301 -1 5.5s-1.33398 3.5 -2.00098 5.5l-103 205c-2 4 -5 7.33301 -9 10s-8.33301 4 -13 4h-615c-4.66699 0 -9 -1.33301 -13 -4s-7.33301 -6 -10 -10l-102 -205c-0.666992 -2 -1.33398 -3.83301 -2.00098 -5.5s-1 -3.5 -1 -5.5
v-52c0 -20.667 4.66699 -39.834 14 -57.501s21.666 -32.5 36.999 -44.5v-333h-25c-7.33301 0 -13.5 -2.5 -18.5 -7.5s-7.5 -10.833 -7.5 -17.5c0 -7.33301 2.5 -13.5 7.5 -18.5s11.167 -7.5 18.5 -7.5h819c7.33301 0 13.5 2.5 18.5 7.5s7.5 11.167 7.5 18.5
c0 6.66699 -2.5 12.5 -7.5 17.5s-11.167 7.5 -18.5 7.5h-26v333c16 12 28.667 26.833 38 44.5s14 36.834 14 57.501v0zM589.003 410c-21.333 0 -39.5 7.5 -54.5 22.5s-22.5 32.833 -22.5 53.5v26h154v-26c0 -20.667 -7.5 -38.5 -22.5 -53.5s-33.167 -22.5 -54.5 -22.5v0z
M102.003 486v26h154v-26c0 -20.667 -7.5 -38.5 -22.5 -53.5s-33.167 -22.5 -54.5 -22.5s-39.5 7.5 -54.5 22.5s-22.5 32.833 -22.5 53.5v0zM461.003 717v-154h-147l39 154h108v0zM620.003 717l38 -154h-146v154h108v0zM307.003 512h154v-26
c0 -20.667 -7.5 -38.5 -22.5 -53.5s-33.167 -22.5 -54.5 -22.5s-39.5 7.5 -54.5 22.5s-22.5 32.833 -22.5 53.5v26v0zM717.003 512h153v-26c0 -20.667 -7.5 -38.5 -22.5 -53.5s-32.833 -22.5 -53.5 -22.5c-21.333 0 -39.5 7.5 -54.5 22.5s-22.5 32.833 -22.5 53.5v26v0z
M855.003 563h-144l-38 154h105l77 -154v0zM195.003 717h105l-38 -154h-144l77 154v0zM154.003 361l12.502 -2.00098c4.33301 -0.666992 8.5 -1 12.5 -1c21.333 0 40.833 4.66699 58.5 14s32.5 22 44.5 38c11.333 -16 26 -28.667 44 -38s37.333 -14 58 -14s40 4.66699 58 14
s32.667 22 44 38c9.33301 -12.667 20.666 -23.167 33.999 -31.5s27.666 -14.166 42.999 -17.499v-310h-409v310v0zM819.005 50.999l-205 0.000976562v310c16 3.33301 30.5 9.16602 43.5 17.499s24.167 18.833 33.5 31.5c12 -16 26.833 -28.667 44.5 -38s37.167 -14 58.5 -14
c4 0 8.16699 0.333008 12.5 1l12.5 2v-310v0zM717.005 230c0 -6.66699 -2.5 -12.5 -7.5 -17.5s-11.167 -7.5 -18.5 -7.5c-6.66699 0 -12.5 2.5 -17.5 7.5s-7.5 10.833 -7.5 17.5c0 7.33301 2.5 13.5 7.5 18.5s10.833 7.5 17.5 7.5c7.33301 0 13.5 -2.5 18.5 -7.5
s7.5 -11.167 7.5 -18.5v0zM230.005 205c-3.33301 0 -6.50098 0.666992 -9.50098 2s-5.83301 3 -8.5 5c-4.66699 5.33301 -7 11.5 -7 18.5s2.33301 13.167 7 18.5l51 51c5.33301 4.66699 11.5 7 18.5 7s13.167 -2.33301 18.5 -7c4.66699 -5.33301 7 -11.5 7 -18.5
s-2.33301 -13.167 -7 -18.5l-51 -51c-2.66699 -2 -5.66699 -3.66699 -9 -5s-6.66602 -2 -9.99902 -2v0zM282.004 102c-3.33301 0 -6.66699 0.666992 -10 2s-6.33301 3.33301 -9 6c-4.66699 4.66699 -7 10.667 -7 18s2.33301 13.333 7 18l154 154
c5.33301 4.66699 11.5 7 18.5 7s12.833 -2.33301 17.5 -7c5.33301 -5.33301 8 -11.5 8 -18.5s-2.66699 -13.167 -8 -18.5l-153 -153c-2.66699 -2.66699 -5.5 -4.66699 -8.5 -6s-6.16699 -2 -9.5 -2v0zM435.003 102c-3.33301 0 -6.50098 0.666992 -9.50098 2
s-5.83301 3.33301 -8.5 6c-4.66699 4.66699 -7 10.667 -7 18s2.33301 13.333 7 18l51 51c5.33301 5.33301 11.5 8 18.5 8s13.167 -2.66699 18.5 -8c4.66699 -4.66699 7 -10.5 7 -17.5s-2.33301 -13.167 -7 -18.5l-52 -51c-2 -2.66699 -4.66699 -4.66699 -8 -6
s-6.66602 -2 -9.99902 -2v0z" />
    <glyph glyph-name="uniE82E" unicode="&#xe82e;" 
d="M410 -51c-28.667 0 -53 10 -73 30s-30 44 -30 72c0 28.667 10 53 30 73s44.333 30 73 30c28 0 52 -10 72 -30s30 -44.333 30 -73c0 -28 -10 -52 -30 -72s-44 -30 -72 -30v0zM410 102c-14.667 0 -27 -5 -37 -15s-15 -22 -15 -36s5 -26 15 -36s22.333 -15 37 -15
c14 0 26 5 36 15s15 22 15 36s-5 26 -15 36s-22 15 -36 15v0zM768 -51c-28 0 -52 10 -72 30s-30 44 -30 72c0 28.667 10 53 30 73s44 30 72 30s52 -10 72 -30s30 -44.333 30 -73c0 -28 -10 -52 -30 -72s-44 -30 -72 -30v0zM768 102c-14 0 -26 -5 -36 -15s-15 -22 -15 -36
s5 -26 15 -36s22 -15 36 -15s26 5 36 15s15 22 15 36s-5 26 -15 36s-22 15 -36 15v0zM898 744c-6.66699 7.33301 -14.5 13.168 -23.5 17.501s-18.833 6.5 -29.5 6.5h-627l-5 31c-3.33301 20 -13.166 36.833 -29.499 50.5s-34.833 20.5 -55.5 20.5h-51
c-7.33301 0 -13.5 -2.5 -18.5 -7.5s-7.5 -10.833 -7.5 -17.5c0 -7.33301 2.5 -13.5 7.5 -18.5s11.167 -7.5 18.5 -7.5h51c8 0 15.333 -2.83301 22 -8.5s10.667 -12.5 12 -20.5l86 -513c3.33301 -20.667 13.166 -37.834 29.499 -51.501s34.833 -20.5 55.5 -20.5h512
c6.66699 0 12.5 2.5 17.5 7.5s7.5 10.833 7.5 17.5c0 7.33301 -2.5 13.5 -7.5 18.5s-10.833 7.5 -17.5 7.5h-512c-8 0 -15.5 2.83301 -22.5 8.5s-11.167 12.5 -12.5 20.5l-12 76l510 44c20 2 38 10.333 54 25s25.333 31.667 28 51l35 207c1.33301 10 0.833008 20 -1.5 30
s-6.83301 18.667 -13.5 26v0zM862 696.002l-34.002 -206.001c-1.33301 -8 -5.66602 -15.5 -12.999 -22.5s-15 -10.833 -23 -11.5l-515 -44l-51 305h619c2.66699 0 5.33398 -0.5 8.00098 -1.5s4.66699 -2.5 6 -4.5s2.33301 -4.16699 3 -6.5s0.666992 -5.16602 0 -8.49902v0z
" />
    <glyph glyph-name="uniE82F" unicode="&#xe82f;" 
d="M384 -4c-10 0 -19.6689 1.83398 -29.002 5.50098s-17.666 9.16699 -24.999 16.5l-261 260c-7.33301 7.33301 -12.833 15.666 -16.5 24.999s-5.5 19.333 -5.5 30c0 10 1.83301 19.667 5.5 29s9.16699 17.666 16.5 24.999l440 440c12.667 12 29 22.167 49 30.5
s38.667 12.5 56 12.5h231c21.333 0 39.5 -7.5 54.5 -22.5s22.5 -32.833 22.5 -53.5v-231c0 -17.333 -4.16699 -36.166 -12.5 -56.499s-18.833 -36.5 -31.5 -48.5l-440 -440c-7.33301 -7.33301 -15.666 -12.833 -24.999 -16.5s-19 -5.5 -29 -5.5v0zM613.998 819.001
c-10.667 0 -22.998 -2.83398 -36.998 -8.50098s-24.667 -12.5 -32 -20.5l-439 -439c-2.66699 -2.66699 -4.66699 -5.5 -6 -8.5s-2 -6.16699 -2 -9.5s0.666992 -6.66602 2 -9.99902s3.33301 -6 6 -8l260 -261c2 -2 4.66699 -3.66699 8 -5s6.66602 -2 9.99902 -2
s6.66602 0.666992 9.99902 2s6 3 8 5l440 440c7.33301 7.33301 13.833 18 19.5 32s8.5 26.333 8.5 37v231c0 6.66699 -2.5 12.5 -7.5 17.5s-10.833 7.5 -17.5 7.5h-231v0zM742 614c-20.667 0 -38.5 7.5 -53.5 22.5s-22.5 33.167 -22.5 54.5s7.5 39.5 22.5 54.5
s32.833 22.5 53.5 22.5c21.333 0 39.5 -7.5 54.5 -22.5s22.5 -33.167 22.5 -54.5s-7.5 -39.5 -22.5 -54.5s-33.167 -22.5 -54.5 -22.5v0zM742 717c-6.66699 0 -12.5 -2.5 -17.5 -7.5s-7.5 -11.167 -7.5 -18.5c0 -6.66699 2.5 -12.5 7.5 -17.5s10.833 -7.5 17.5 -7.5
c7.33301 0 13.5 2.5 18.5 7.5s7.5 10.833 7.5 17.5c0 7.33301 -2.5 13.5 -7.5 18.5s-11.167 7.5 -18.5 7.5v0z" />
    <glyph glyph-name="uniE830" unicode="&#xe830;" 
d="M819 -51c-45.333 0 -91.9971 6.33105 -139.997 18.998s-97 31.667 -147 57c-22.667 12 -45.334 25 -68.001 39s-45 29.167 -67 45.5s-43.667 33.666 -65 51.999s-42 37.5 -62 57.5s-39 40.5 -57 61.5s-35.167 42.667 -51.5 65s-31.666 44.833 -45.999 67.5
s-27.166 45.334 -38.499 68.001c-25.333 50 -44.333 99 -57 147s-19 94.667 -19 140c0 29.333 10 56.833 30 82.5s36 43.834 48 54.501c16.667 16 37 31.333 61 46s45.667 22 65 22c9.33301 0 19.833 -3.33301 31.5 -10s24.834 -16.667 39.501 -30
c10.667 -10 22 -21.667 34 -35s24.333 -28 37 -44c7.33301 -9.33301 23.833 -33 49.5 -71s38.5 -68.667 38.5 -92c0 -19.333 -9 -36.166 -27 -50.499s-38.667 -28.5 -62 -42.5l-26 -16.5c-8.66699 -5.66699 -16.334 -11.167 -23.001 -16.5
c-7.33301 -5.33301 -12 -9.5 -14 -12.5s-3 -4.83301 -3 -5.5c12 -30.667 29.667 -62.167 53 -94.5s49.666 -63 78.999 -92s60.166 -55.167 92.499 -78.5s63.5 -41 93.5 -53c0.666992 0 2.5 1 5.5 3s7.5 6.66699 13.5 14c5.33301 6.66699 10.666 14.334 15.999 23.001l16 26
c14.667 22.667 29.167 43.167 43.5 61.5s30.833 27.5 49.5 27.5c23.333 0 54 -12.833 92 -38.5s61.667 -42.5 71 -50.5c16 -12 30.667 -24 44 -36s25 -23.333 35 -34c14 -14.667 24.167 -27.834 30.5 -39.501s9.5 -22.167 9.5 -31.5c0 -19.333 -7.33301 -41 -22 -65
s-30 -44.333 -46 -61c-10.667 -12 -28.834 -28.167 -54.501 -48.5s-53.167 -30.5 -82.5 -30.5v0zM204.003 921.998c-6.66699 -0.666992 -18.335 -5.33008 -35.002 -13.9971s-35 -22 -55 -40c-19.333 -18 -34.5 -35.833 -45.5 -53.5s-16.5 -33.167 -16.5 -46.5
c0 -86 23.833 -174.333 71.5 -265s108.667 -173.334 183 -248.001s156.833 -135.834 247.5 -183.501s179 -71.5 265 -71.5c13.333 0 28.833 5.5 46.5 16.5s35.5 26.167 53.5 45.5c18 20 31.5 38.5 40.5 55.5s13.5 28.833 13.5 35.5c-0.666992 5.33301 -8.66699 17 -24 35
s-41.333 41.333 -78 70c-32 24 -59.667 42.5 -83 55.5s-38.333 19.5 -45 19.5c-0.666992 0 -2.5 -1 -5.5 -3s-7.5 -6.66699 -13.5 -14l-15 -22.5l-16 -25.5c-14 -23.333 -28.5 -44.333 -43.5 -63s-32.167 -28 -51.5 -28c-3.33301 0 -6.5 0.333008 -9.5 1
s-6.16699 1.66699 -9.5 3c-33.333 13.333 -67.666 32.666 -102.999 57.999s-68.833 53.833 -100.5 85.5s-60.167 65.167 -85.5 100.5s-44.666 69.666 -57.999 102.999c-3.33301 8 -4 18.167 -2 30.5s11 25.5 27 39.5c8 8 17.5 15.5 28.5 22.5l33.5 21.5l25.5 16l22.5 15
c7.33301 6 12 10.5 14 13.5l3 4.5c0 6.66699 -6.5 21.834 -19.5 45.501s-31.5 51.167 -55.5 82.5c-28.667 37.333 -52 63.5 -70 78.5s-29.667 23.167 -35 24.5v0z" />
    <glyph glyph-name="uniE831" unicode="&#xe831;" 
d="M916 517c-26.667 0 -59.5 4.49805 -98.5 13.498s-66.167 21.167 -81.5 36.5c-9.33301 8.66699 -15.666 18.5 -18.999 29.5s-5.66602 21.167 -6.99902 30.5c-2 11.333 -4.16699 19.333 -6.5 24s-5.83301 8 -10.5 10c-23.333 10 -50.833 17.667 -82.5 23
s-64.834 8 -99.501 8c-34 0 -66.833 -2.66699 -98.5 -8s-58.834 -13 -81.501 -23c-4.66699 -2 -8 -5.16699 -10 -9.5s-4.33301 -12.166 -7 -23.499c-1.33301 -9.33301 -3.66602 -19.5 -6.99902 -30.5s-9.66602 -21.167 -18.999 -30.5c-8 -8 -19.667 -15 -35 -21
s-29.666 -10.667 -42.999 -14c-17.333 -4 -34.833 -7.33301 -52.5 -10s-33.834 -4 -48.501 -4c-16.667 0 -30.834 1.66699 -42.501 5s-20.834 8.33301 -27.501 15c-10 10 -18 21.667 -24 35s-9.66699 26.666 -11 39.999c-1.33301 12 0.166992 26 4.5 42s14.5 32.333 30.5 49
c26 26 56.5 49.167 91.5 69.5s74.167 37.5 117.5 51.5c40 12.667 82.167 22.334 126.5 29.001s89.5 10 135.5 10s91.333 -3.33301 136 -10s87.334 -16.667 128.001 -30c43.333 -14 82.666 -31.333 117.999 -52s66.333 -44 93 -70
c26.667 -27.333 38.334 -56.666 35.001 -87.999s-14.666 -57 -33.999 -77c-6.66699 -6.66699 -15.834 -11.667 -27.501 -15s-25.834 -5 -42.501 -5v0zM511 742.998c38.667 0 75.3213 -3.00391 109.988 -9.00391s65.334 -14.667 92.001 -26c18 -8 29.833 -19 35.5 -33
s9.5 -27 11.5 -39c1.33301 -6.66699 2.83301 -13 4.5 -19s4.16699 -10.667 7.5 -14c6.66699 -6.66699 25.334 -14.167 56.001 -22.5s60 -12.5 88 -12.5c12.667 0 21.334 0.833008 26.001 2.5s7.33398 2.5 8.00098 2.5c7.33301 8 13.5 20.833 18.5 38.5
s-1.5 35.834 -19.5 54.501c-23.333 22.667 -50.666 43.167 -81.999 61.5s-66 33.833 -104 46.5s-78.333 22.334 -121 29.001s-86.667 10 -132 10s-89.166 -3.33301 -131.499 -10s-82.166 -16.167 -119.499 -28.5s-71.666 -27.5 -102.999 -45.5s-58.333 -38.667 -81 -62
c-7.33301 -7.33301 -12.666 -15.166 -15.999 -23.499s-4.66602 -17.166 -3.99902 -26.499c0.666992 -7.33301 2.66699 -14.833 6 -22.5s8 -14.167 14 -19.5c0.666992 -0.666992 3.33398 -1.66699 8.00098 -3s13.334 -2 26.001 -2c28 0 57.167 4 87.5 12s48.833 15 55.5 21
c3.33301 4 5.83301 8.83301 7.5 14.5s3.16699 12.167 4.5 19.5c2 12 5.83301 25 11.5 39s17.5 25 35.5 33c26 10.667 56.333 19 91 25s71 9 109 9v0zM844.987 50.9941h-666.002c-17.333 0 -33.666 3.33301 -48.999 10s-28.666 16 -39.999 28
c-11.333 12.667 -20 26.834 -26 42.501s-8.33301 31.834 -7 48.501c0 2 3.5 22.667 10.5 62s25.167 82.666 54.5 129.999c17.333 28 37.5 53 60.5 75s48.5 41 76.5 57c35.333 19.333 74.166 34 116.499 44s87.833 15 136.5 15s94.167 -5 136.5 -15
s81.166 -24.667 116.499 -44c28 -16 53.5 -35 76.5 -57s43.167 -47 60.5 -75c29.333 -47.333 47.5 -90.666 54.5 -129.999s10.5 -60 10.5 -62c1.33301 -16.667 -1 -32.834 -7 -48.501s-14.667 -29.834 -26 -42.501c-11.333 -12 -24.666 -21.333 -39.999 -28
s-31.666 -10 -48.999 -10v0zM511.985 511.994c-40 0 -77.165 -3.5 -111.498 -10.5s-66 -17.333 -95 -31s-55 -30.834 -78 -51.501s-43.5 -45 -61.5 -73c-26 -41.333 -42.167 -79.666 -48.5 -114.999l-9.5 -53c-0.666992 -10 0.666016 -19.667 3.99902 -29
s8.33301 -17.666 15 -24.999c6.66699 -6.66699 14.5 -12 23.5 -16s18.5 -6 28.5 -6h666c10 0 19.5 2 28.5 6s16.833 9.33301 23.5 16c6.66699 7.33301 11.667 15.666 15 24.999s4.66602 19 3.99902 29l-9.5 53c-6.33301 35.333 -22.5 73.666 -48.5 114.999
c-18 28 -38.5 52.333 -61.5 73s-49 37.834 -78 51.501s-60.667 24 -95 31s-71.5 10.5 -111.5 10.5v0zM511.987 153.994c-42.667 0 -79 15 -109 45s-45 66 -45 108c0 42.667 15 79 45 109s66.333 45 109 45s79 -15 109 -45s45 -66.333 45 -109c0 -42 -15 -78 -45 -108
s-66.333 -45 -109 -45v0zM511.987 409.994c-28 0 -52 -10 -72 -30s-30 -44.333 -30 -73c0 -28 10 -52 30 -72s44 -30 72 -30s52 10 72 30s30 44 30 72c0 28.667 -10 53 -30 73s-44 30 -72 30v0z" />
    </font>
</defs>
</svg>
